<?xml version="1.0" encoding="UTF-8"?>
<svg width="16px" height="16px" viewBox="0 0 16 16" version="1.1" xmlns="http://www.w3.org/2000/svg" xmlns:xlink="http://www.w3.org/1999/xlink">
    <!-- Generator: Sketch 43.1 (39012) - http://www.bohemiancoding.com/sketch -->
    <title>checkbox-on</title>
    <desc>Created with Sketch.</desc>
    <defs>
        <rect id="path-1" x="0" y="0" width="14" height="14" rx="2"></rect>
        <path d="M1.20852885,8.13896767 L5.06971588,12.0001547 C5.20832259,12.1387614 5.38900634,12.2080648 5.59753519,12.2080648 C5.80606404,12.2080648 5.98612902,12.1387614 6.12535451,12.0001547 L12.7920899,5.33341927 C12.9306966,5.18058062 13,5.01412881 13,4.80559996 C13,4.59707111 12.9306966,4.41638736 12.7920899,4.27778064 L11.7364513,3.22214201 C11.5972258,3.06930336 11.4171608,3 11.208632,3 C11.0001031,3 10.8194194,3.06930336 10.6808127,3.22214201 L5.59753519,8.30541948 L3.31980612,6.0276904 C3.18058062,5.87485175 3.00051565,5.80554839 2.7919868,5.80554839 C2.58345795,5.80554839 2.4027742,5.87485175 2.26416748,6.0276904 L1.20852885,7.08332904 C1.06992214,7.22193575 1,7.4026195 1,7.61114835 C1,7.8196772 1.06992214,7.98612902 1.20852885,8.13896767" id="path-2"></path>
    </defs>
    <g id="AssetMaker" stroke="none" stroke-width="1" fill="none" fill-rule="evenodd">
        <g id="-Asset-Maker" transform="translate(-264.000000, -533.000000)">
            <g id="checkbox-on" transform="translate(265.000000, 534.000000)">
                <g id="Checkbox-:-1">
                    <g id="Rectangle-9">
                        <use fill="#49C0E8" fill-rule="evenodd" xlink:href="#path-1"></use>
                        <rect stroke="#49C0E8" stroke-width="1" x="-0.5" y="-0.5" width="15" height="15" rx="2"></rect>
                    </g>
                    <g id="Fill-112">
                        <use fill="#FFFFFF" fill-rule="evenodd" xlink:href="#path-2"></use>
                        <path stroke-opacity="0.469231205" stroke="#C2C2C2" stroke-width="1" d="M5.59756456,7.59834207 L3.67335951,5.67413701 C3.45570652,5.43439719 3.14274894,5.30554839 2.7919868,5.30554839 C2.44082947,5.30554839 2.12700545,5.43464107 1.89379061,5.69180207 L0.85497546,6.72977565 C0.621080491,6.96367061 0.5,7.2717532 0.5,7.61114835 C0.5,7.94232465 0.614808089,8.22857948 0.83815198,8.474856 L0.85497546,8.49252106 L4.71616249,12.3537081 C4.95002022,12.5875658 5.25799185,12.7080648 5.59753519,12.7080648 C5.93669102,12.7080648 6.24375778,12.5878148 6.4781196,12.3544946 L13.1456433,5.68697267 C13.3856846,5.42317015 13.5,5.13687126 13.5,4.80559996 C13.5,4.46605662 13.3795011,4.15808499 13.1456433,3.92422725 L12.0900047,2.86858862 C11.8723517,2.62884879 11.5593941,2.5 11.208632,2.5 C10.8574746,2.5 10.5436506,2.62909268 10.3104358,2.88625367 L5.59756456,7.59834207 Z"></path>
                    </g>
                </g>
            </g>
        </g>
    </g>
</svg>