<?xml version="1.0" encoding="UTF-8"?>
<svg width="18px" height="18px" viewBox="0 0 18 18" version="1.1" xmlns="http://www.w3.org/2000/svg" xmlns:xlink="http://www.w3.org/1999/xlink">
    <!-- Generator: Sketch 43.1 (39012) - http://www.bohemiancoding.com/sketch -->
    <title>close</title>
    <desc>Created with Sketch.</desc>
    <defs></defs>
    <g id="AssetMaker" stroke="none" stroke-width="1" fill="none" fill-rule="evenodd">
        <g id="-Asset-Maker" transform="translate(-164.000000, -531.000000)" fill="#C2C2C2">
            <g id="Close-Button-Dark" transform="translate(164.000000, 531.000000)">
                <g id="Close-Button">
                    <path d="M9,7.58578644 L1.92942337,0.515209805 C1.53823393,0.124020364 0.905242917,0.124194334 0.514718626,0.514718626 C0.12147167,0.907965581 0.124414243,1.5386278 0.515209805,1.92942337 L7.58578644,9 L0.515209805,16.0705766 C0.124020364,16.4617661 0.124194334,17.0947571 0.514718626,17.4852814 C0.907965581,17.8785283 1.5386278,17.8755858 1.92942337,17.4847902 L9,10.4142136 L16.0705766,17.4847902 C16.4617661,17.8759796 17.0947571,17.8758057 17.4852814,17.4852814 C17.8785283,17.0920344 17.8755858,16.4613722 17.4847902,16.0705766 L10.4142136,9 L17.4847902,1.92942337 C17.8759796,1.53823393 17.8758057,0.905242917 17.4852814,0.514718626 C17.0920344,0.12147167 16.4613722,0.124414243 16.0705766,0.515209805 L9,7.58578644 Z" id="Combined-Shape"></path>
                </g>
            </g>
        </g>
    </g>
</svg>