<?xml version="1.0" encoding="UTF-8"?>
<svg width="19px" height="20px" viewBox="0 0 19 20" version="1.1" xmlns="http://www.w3.org/2000/svg" xmlns:xlink="http://www.w3.org/1999/xlink">
    <!-- Generator: Sketch 43.1 (39012) - http://www.bohemiancoding.com/sketch -->
    <title>delete</title>
    <desc>Created with Sketch.</desc>
    <defs></defs>
    <g id="AssetMaker" stroke="none" stroke-width="1" fill="none" fill-rule="evenodd" opacity="0.100000001">
        <g id="-Asset-Maker" transform="translate(-346.000000, -529.000000)" fill="#0A0B09">
            <g id="fa-trash-o" transform="translate(347.000000, 529.000000)">
                <path d="M-0.218,4.831 C-0.15,4.899 -0.038,4.943 0.074,4.943 L1.264,4.943 L1.264,16.862 C1.264,17.536 1.466,18.142 1.847,18.613 C2.251,19.107 2.723,19.354 3.261,19.354 L13.699,19.354 C14.237,19.354 14.709,19.107 15.113,18.591 C15.494,18.097 15.696,17.491 15.696,16.795 L15.696,4.943 L16.886,4.943 C16.998,4.943 17.11,4.899 17.178,4.831 C17.245,4.764 17.29,4.652 17.29,4.539 L17.29,3.754 C17.29,3.642 17.245,3.529 17.178,3.462 C17.11,3.395 16.998,3.35 16.886,3.35 L13.025,3.35 L12.15,1.263 C12.038,0.948 11.791,0.679 11.476,0.477 C11.14,0.252 10.826,0.14 10.489,0.14 L6.471,0.14 C6.134,0.14 5.82,0.252 5.483,0.477 C5.169,0.679 4.922,0.948 4.81,1.263 L3.935,3.35 L0.074,3.35 C-0.038,3.35 -0.15,3.395 -0.218,3.462 C-0.285,3.529 -0.33,3.642 -0.33,3.754 L-0.33,4.539 C-0.33,4.652 -0.285,4.764 -0.218,4.831 L-0.218,4.831 Z M2.857,4.943 L14.103,4.943 L14.103,16.817 C14.103,16.997 14.08,17.154 14.013,17.311 C13.945,17.468 13.901,17.58 13.833,17.648 C13.766,17.715 13.721,17.76 13.699,17.76 L3.261,17.76 C3.239,17.76 3.194,17.715 3.127,17.648 C3.059,17.58 3.014,17.468 2.947,17.311 C2.88,17.154 2.857,16.997 2.857,16.817 L2.857,4.943 L2.857,4.943 Z M4.586,15.246 C4.653,15.313 4.765,15.358 4.877,15.358 L5.663,15.358 C5.775,15.358 5.887,15.313 5.955,15.246 C6.022,15.179 6.067,15.067 6.067,14.954 L6.067,7.749 C6.067,7.637 6.022,7.525 5.955,7.458 C5.887,7.39 5.775,7.345 5.663,7.345 L4.877,7.345 C4.765,7.345 4.653,7.39 4.586,7.458 C4.518,7.525 4.473,7.637 4.473,7.749 L4.473,14.954 C4.473,15.067 4.518,15.179 4.586,15.246 L4.586,15.246 Z M6.292,1.868 C6.336,1.801 6.404,1.756 6.494,1.734 L10.466,1.734 C10.556,1.756 10.624,1.801 10.691,1.868 L11.297,3.35 L5.663,3.35 L6.292,1.868 L6.292,1.868 Z M7.795,15.246 C7.863,15.313 7.975,15.358 8.087,15.358 L8.873,15.358 C8.985,15.358 9.097,15.313 9.165,15.246 C9.232,15.179 9.277,15.067 9.277,14.954 L9.277,7.749 C9.277,7.637 9.232,7.525 9.165,7.458 C9.097,7.39 8.985,7.345 8.873,7.345 L8.087,7.345 C7.975,7.345 7.863,7.39 7.795,7.458 C7.728,7.525 7.683,7.637 7.683,7.749 L7.683,14.954 C7.683,15.067 7.728,15.179 7.795,15.246 L7.795,15.246 Z M11.005,15.246 C11.072,15.313 11.185,15.358 11.297,15.358 L12.082,15.358 C12.195,15.358 12.307,15.313 12.374,15.246 C12.442,15.179 12.487,15.067 12.487,14.954 L12.487,7.749 C12.487,7.637 12.442,7.525 12.374,7.458 C12.307,7.39 12.195,7.345 12.082,7.345 L11.297,7.345 C11.185,7.345 11.072,7.39 11.005,7.458 C10.938,7.525 10.893,7.637 10.893,7.749 L10.893,14.954 C10.893,15.067 10.938,15.179 11.005,15.246 L11.005,15.246 Z" id="Fill-68"></path>
            </g>
        </g>
    </g>
</svg>