<?xml version="1.0" encoding="UTF-8"?>
<svg width="97px" height="152px" viewBox="0 0 97 152" version="1.1" xmlns="http://www.w3.org/2000/svg" xmlns:xlink="http://www.w3.org/1999/xlink">
    <!-- Generator: Sketch 43.1 (39012) - http://www.bohemiancoding.com/sketch -->
    <title>graphic-contact</title>
    <desc>Created with Sketch.</desc>
    <defs></defs>
    <g id="AssetMaker" stroke="none" stroke-width="1" fill="none" fill-rule="evenodd" opacity="0.300000012">
        <g id="-Asset-Maker" transform="translate(-370.000000, -835.000000)" fill="#C2C2C2">
            <path d="M384.669833,880.532405 C378.673364,881.796867 377.650932,875.639341 377.652617,875.639341 C381.927627,878.674386 384.620985,875.261011 384.620985,875.261011 C387.85672,871.30116 391.516924,873.100328 393.280492,874.37656 C395.382625,871.613912 398.697527,869.82147 402.443635,869.82147 C408.798881,869.82147 413.953149,874.963391 413.953149,881.307561 C413.953149,887.653412 408.798881,892.798696 402.443635,892.798696 C396.088389,892.798696 390.934121,887.655093 390.934121,881.309242 C390.934121,880.132217 391.110983,878.998909 391.44281,877.931178 C388.431101,879.78079 384.669833,880.532405 384.669833,880.532405 Z M433.049207,881.141096 C435.249035,883.020974 435.510117,886.325054 433.626957,888.524411 L414.862726,910.210272 L419.712117,953.511373 L414.407938,953.511373 L416.942962,980.60819 C417.207413,983.48854 415.09012,986.041005 412.20811,986.311721 C412.041354,986.323491 411.876283,986.331899 411.711211,986.331899 C409.039751,986.331899 406.750649,984.295644 406.492936,981.585121 L402.787253,956.163044 L402.09328,956.163044 L398.390966,981.558218 L398.389281,981.586803 C398.133252,984.295644 395.845835,986.331899 393.174375,986.331899 L393.17269,986.331899 C393.010988,986.331899 392.844232,986.323491 392.679161,986.311721 C389.793781,986.039324 387.676489,983.48854 387.944309,980.60819 L390.479333,953.511373 L385.173469,953.511373 L390.034651,910.526388 L371.260314,888.832119 C369.373784,886.634444 369.636551,883.328683 371.838063,881.452167 C372.828491,880.608071 374.037891,880.194431 375.245607,880.194431 C376.721143,880.194431 378.193309,880.816573 379.23427,882.02891 L394.132799,897.922122 C394.132799,892.314434 396.159134,896.294463 402.169078,896.294463 L402.716508,896.294463 C408.726452,896.294463 410.752787,892.314434 410.752787,897.922122 L425.654685,881.71952 C426.693961,880.508865 428.166128,879.886723 429.643348,879.886723 C430.849379,879.886723 432.058779,880.300363 433.049207,881.141096 Z M441.348252,835 C455.515752,835 467,843.057583 467,853.000089 C467,862.942594 455.514067,871.000177 441.348252,871.000177 C437.72679,871.000177 434.285558,870.468834 431.162678,869.518806 C427.334033,871.250716 422.725511,872.801027 418.179312,872.991032 C418.179312,872.991032 421.502636,869.715538 423.407694,865.854893 C418.652629,862.587805 415.69482,858.039441 415.69482,853.000089 C415.69482,843.057583 427.179069,835 441.348252,835 Z" id="graphic-contact"></path>
        </g>
    </g>
</svg>