<?xml version="1.0" encoding="UTF-8"?>
<svg width="67px" height="91px" viewBox="0 0 67 91" version="1.1" xmlns="http://www.w3.org/2000/svg" xmlns:xlink="http://www.w3.org/1999/xlink">
    <!-- Generator: Sketch 43.1 (39012) - http://www.bohemiancoding.com/sketch -->
    <title>graphic-artist2</title>
    <desc>Created with Sketch.</desc>
    <defs>
        <linearGradient x1="50%" y1="0%" x2="50%" y2="100%" id="linearGradient-1">
            <stop stop-color="#E2E2E2" offset="0%"></stop>
            <stop stop-color="#C2C2C2" offset="100%"></stop>
        </linearGradient>
    </defs>
    <g id="AssetMaker" stroke="none" stroke-width="1" fill="none" fill-rule="evenodd">
        <g id="-Asset-Maker" transform="translate(-270.000000, -693.000000)" fill="url(#linearGradient-1)">
            <path d="M331.044512,706.981593 C328.79142,711.913994 322.910374,714.060397 317.908827,711.77572 C312.907281,709.491043 310.679218,703.640445 312.93231,698.708045 C315.185402,693.775644 321.066449,691.62924 326.067995,693.913918 C331.069541,696.198595 333.297604,702.049193 331.044512,706.981593 Z M317.092102,757.428021 C313.418733,754.184697 309.484352,752.189044 307.853684,751.444603 L282.304215,781.761356 C281.268025,782.991322 279.798415,783.62246 278.31964,783.62246 C277.115843,783.62246 275.906372,783.20421 274.919504,782.34912 C272.720109,780.44287 272.461279,777.091554 274.339866,774.861327 L281.923609,765.864291 L282.044949,766.070097 L282.167598,765.57395 L300.344577,744.005495 L300.482067,742.72286 C300.659712,742.746317 300.839976,742.757382 301.021986,742.757382 L301.022859,742.757382 C301.157293,742.757382 301.288672,742.740121 301.42136,742.728171 C302.150709,742.660012 302.85125,742.418798 303.46406,741.998777 C304.00136,741.63054 304.427796,741.158293 304.74424,740.629394 C305.171985,739.913278 305.391531,739.090497 305.380183,738.259749 L311.832149,734.341471 C312.412223,735.03767 313.197004,735.903825 314.175143,736.795208 C315.425643,737.92869 316.659993,738.808565 317.951084,739.48706 C318.884266,739.973913 321.001604,740.366493 322.385228,740.615231 L321.093264,747.089042 C324.894956,749.928721 329.07158,753.900553 332.152217,759.345777 C334.618298,763.707534 336.304399,769.060257 336.295669,775.163175 C336.295669,776.266118 336.241546,777.388977 336.132864,778.529097 C335.869234,781.273618 333.590837,783.327693 330.926597,783.327693 C330.757245,783.327693 330.586147,783.319727 330.413739,783.302465 C327.534317,783.019648 325.426146,780.422954 325.705489,777.504494 C325.783182,776.691007 325.819846,775.911158 325.819846,775.162733 C325.811989,771.140445 324.798932,767.827192 323.211038,764.893241 C321.621834,761.972568 319.415019,759.467048 317.092102,757.428021 Z M330.594003,731.258809 L331.419813,731.306609 L332.803873,731.388046 C332.671185,732.567115 332.356924,733.7661 331.772048,734.913302 C330.966316,736.513719 329.604952,737.937099 327.881314,738.86566 C326.930673,739.387034 325.925909,739.7327 324.932493,739.900443 C324.829049,739.917704 324.726041,739.929654 324.623906,739.93762 C324.209691,739.992945 323.799842,740.026582 323.399595,740.026582 C323.358566,740.026582 323.31841,740.022156 323.276945,740.022156 C323.01768,740.018615 322.762778,740.003124 322.511806,739.979667 C320.947481,739.832726 319.548144,739.324186 318.350022,738.699244 C316.923187,737.949934 315.737286,737.024914 314.756527,736.134417 C313.853898,735.312521 313.124986,734.515853 312.588559,733.881174 C312.367703,733.620044 312.180892,733.386798 312.028126,733.191171 C311.749218,732.833556 311.584668,732.597654 311.551059,732.551624 C311.269097,732.145766 311.083595,731.700075 310.988443,731.243318 C310.920353,730.915357 310.89853,730.581642 310.922972,730.25191 C310.997609,729.232617 311.504793,728.254044 312.393018,727.618922 C313.433137,726.87448 314.733831,726.792158 315.81847,727.278568 C316.115272,727.411789 316.395489,727.587941 316.649954,727.805254 C316.874738,727.996897 317.081627,728.216866 317.258399,728.471799 L317.258836,728.471357 C317.267129,728.483307 317.284151,728.506322 317.308594,728.539516 C317.357915,728.60679 317.438227,728.713898 317.546909,728.851102 C317.684835,729.026811 317.872955,729.254747 318.093811,729.507025 C318.220389,729.651753 318.354386,729.802677 318.503661,729.961568 C318.56695,730.029728 318.635476,730.099215 318.702257,730.168702 C319.500132,730.994138 320.561201,731.896143 321.552435,732.405568 C322.271745,732.783543 322.906379,732.94863 323.399595,732.945532 C323.534465,732.944647 323.660606,732.934467 323.785438,732.913665 L323.785438,732.914551 C323.832141,732.907026 323.878844,732.904371 323.92511,732.898175 C323.928602,732.897732 323.93253,732.897289 323.936458,732.896847 L323.938204,732.881356 C324.130689,732.834441 324.332777,732.760086 324.568037,732.632619 C325.146802,732.303329 325.368967,732.027151 325.571055,731.656258 C325.762231,731.285365 325.898411,730.743188 325.898411,730.0045 C325.905395,729.0454 325.643073,727.802156 325.183029,726.594319 L323.937331,732.836654 C322.450699,732.476383 320.425894,730.656882 319.472634,729.700881 L325.069982,726.301765 L325.265523,726.18315 L330.627175,722.926991 L330.597059,730.419652 L330.594003,731.258809 Z M298.119431,741.636736 L285.255219,749.44895 L281.7093,763.781447 L280.123152,761.095791 L282.981623,749.540124 L271.586585,746.642466 L270,743.95681 L284.13217,747.551995 L296.794731,739.862822 C296.99289,740.176621 297.191922,740.491305 297.402739,740.806874 C297.608755,741.117131 297.850562,741.394637 298.119431,741.636736 Z M310.865794,733.101325 C310.961819,733.235873 311.101054,733.424861 311.273461,733.648813 L305.258843,737.301535 C305.140559,736.797864 304.938035,736.306585 304.635994,735.852927 C304.514218,735.670579 304.399425,735.491329 304.285505,735.313406 L310.2089,731.716008 C310.339406,732.184714 310.544112,732.641028 310.83655,733.061492 L310.862302,733.096456 L310.865794,733.101325 Z M318.006953,728.010175 L317.971598,727.961932 C317.810976,727.731341 317.625474,727.52465 317.428624,727.332122 L323.605611,723.580701 L326.085222,722.074999 L329.605825,719.937274 L331.518456,718.775466 L331.539407,713.67812 C330.912193,712.9921 330.544682,712.021493 330.604479,710.964138 C330.71447,709.010531 332.235584,707.510583 333.998504,707.613264 C335.763607,707.715946 337.104456,709.383195 336.993592,711.335916 C336.933795,712.393272 336.459347,713.314308 335.759242,713.923759 L333.938271,730.568364 L332.87109,730.505958 L331.470007,730.424521 L331.498815,723.532459 L331.507544,721.360654 L330.71447,721.842195 L325.49991,725.00895 L324.709891,725.488721 L318.855023,729.044515 C318.583972,728.741339 318.371409,728.481094 318.227809,728.298303 C318.126547,728.171279 318.052783,728.071695 318.006953,728.010175 Z M297.541538,739.409164 C297.381789,739.157329 297.230769,738.906821 297.080621,738.656313 C295.475705,735.985263 294.389756,733.459825 293.76909,731.080887 C293.332615,729.409655 293.122671,727.809237 293.121798,726.280963 C293.109577,722.664533 294.339125,719.570364 296.073675,717.315351 C297.81128,715.047061 299.971392,713.557292 302.028059,712.673433 C303.416485,712.09098 304.738129,711.749298 306.13572,711.739119 C306.3042,711.739119 306.476171,711.749298 306.649451,711.762134 C306.923993,711.748413 307.203337,711.764789 307.485299,711.822326 L324.013278,715.214361 C324.380353,715.289602 324.719057,715.425035 325.026335,715.604286 C326.200451,716.099105 326.99178,716.820974 327.773942,717.599939 C328.243588,718.092102 328.687046,718.630296 329.106498,719.208323 L326.320045,720.900357 L323.067001,722.87565 L316.688363,726.749669 C316.008773,726.325665 315.221373,726.085779 314.40211,726.085779 C313.498608,726.085779 312.629587,726.365498 311.889763,726.89484 C310.610893,727.810123 309.969276,729.299891 310.054388,730.778596 L303.819787,734.564981 C302.878312,733.001741 302.234512,731.624391 301.801093,730.425406 L302.883549,720.336935 C302.778359,720.422356 302.670986,720.503793 302.569288,720.595852 C301.177807,721.889552 300.128086,723.574062 300.105826,726.281405 C300.104953,726.791715 300.149037,727.351596 300.244625,727.957063 C300.438419,729.188358 300.858308,730.619262 301.604243,732.256857 C301.99707,733.119471 302.481556,734.039623 303.072106,735.018639 C303.220071,735.264721 303.375019,735.514786 303.536952,735.767949 C303.659601,735.96092 303.781377,736.15212 303.91232,736.349074 C304.209559,736.794323 304.38895,737.284274 304.465333,737.783076 C304.518146,738.124316 304.520328,738.469096 304.474499,738.808122 C304.345302,739.771205 303.831135,740.677194 302.974336,741.264072 C302.375057,741.674799 301.695029,741.871753 301.022422,741.871753 C300.873148,741.871753 300.723874,741.860688 300.575909,741.840771 C300.310969,741.805807 300.050394,741.742073 299.799421,741.647801 C299.485596,741.529628 299.190539,741.360115 298.918179,741.151654 C298.619194,740.922833 298.348143,740.645327 298.126414,740.312497 C297.924326,740.009763 297.730532,739.709242 297.541538,739.409164 Z" id="graphic-artist2"></path>
        </g>
    </g>
</svg>