<?xml version="1.0" encoding="UTF-8"?>
<svg width="59px" height="93px" viewBox="0 0 59 93" version="1.1" xmlns="http://www.w3.org/2000/svg" xmlns:xlink="http://www.w3.org/1999/xlink">
    <!-- Generator: Sketch 43.1 (39012) - http://www.bohemiancoding.com/sketch -->
    <title>graphic-contact2</title>
    <desc>Created with Sketch.</desc>
    <defs>
        <linearGradient x1="50%" y1="0%" x2="50%" y2="100%" id="linearGradient-1">
            <stop stop-color="#E2E2E2" offset="0%"></stop>
            <stop stop-color="#C2C2C2" offset="100%"></stop>
        </linearGradient>
    </defs>
    <g id="AssetMaker" stroke="none" stroke-width="1" fill="none" fill-rule="evenodd">
        <g id="-Asset-Maker" transform="translate(-186.000000, -694.000000)" fill="url(#linearGradient-1)">
            <path d="M194.922888,721.694968 C191.275551,722.464074 190.65366,718.718774 190.654684,718.718774 C193.254949,720.564833 194.893176,718.488656 194.893176,718.488656 C196.861304,716.080087 199.087613,717.174426 200.160299,717.950691 C201.438916,716.270318 203.455197,715.180069 205.733758,715.180069 C209.59932,715.180069 212.73439,718.30763 212.73439,722.166455 C212.73439,726.026302 209.59932,729.155908 205.733758,729.155908 C201.868195,729.155908 198.733125,726.027325 198.733125,722.167477 C198.733125,721.451554 198.840701,720.762223 199.042534,720.112778 C197.210669,721.2378 194.922888,721.694968 194.922888,721.694968 Z M224.349518,722.065203 C225.687558,723.208634 225.84636,725.218332 224.700932,726.556085 L213.287638,739.746454 L216.237267,766.084237 L213.011014,766.084237 L214.552935,782.565806 C214.713787,784.317772 213.425949,785.870302 211.672974,786.034964 C211.571545,786.042123 211.471141,786.047237 211.370737,786.047237 C209.745828,786.047237 208.353488,784.808691 208.196734,783.160022 L205.942762,767.697109 L205.520655,767.697109 L203.268732,783.143658 L203.267707,783.161045 C203.111978,784.808691 201.720663,786.047237 200.095754,786.047237 L200.094729,786.047237 C199.996374,786.047237 199.894945,786.042123 199.794541,786.034964 C198.039516,785.869279 196.751679,784.317772 196.91458,782.565806 L198.456501,766.084237 L195.229223,766.084237 L198.186025,739.938731 L186.766583,726.743248 C185.619106,725.406517 185.778933,723.395797 187.117997,722.254411 C187.720423,721.740992 188.456037,721.489396 189.190627,721.489396 C190.088118,721.489396 190.983559,721.867812 191.616721,722.605213 L200.678713,732.272218 C200.678713,728.861357 201.911226,731.282199 205.566759,731.282199 L205.899732,731.282199 C209.555265,731.282199 210.787778,728.861357 210.787778,732.272218 L219.851819,722.417028 C220.483956,721.68065 221.379397,721.302233 222.277912,721.302233 C223.011478,721.302233 223.747092,721.553829 224.349518,722.065203 Z M229.397391,694 C238.014736,694 245,698.901004 245,704.948507 C245,710.996011 238.013711,715.897015 229.397391,715.897015 C227.194645,715.897015 225.101525,715.573827 223.202041,714.995975 C220.873278,716.049404 218.070156,716.992377 215.304943,717.107948 C215.304943,717.107948 217.326346,715.115636 218.485092,712.767409 C215.592836,710.780211 213.793757,708.01368 213.793757,704.948507 C213.793757,698.901004 220.779021,694 229.397391,694 Z" id="graphic-contact2"></path>
        </g>
    </g>
</svg>