<?xml version="1.0" encoding="UTF-8"?>
<svg width="91px" height="124px" viewBox="0 0 91 124" version="1.1" xmlns="http://www.w3.org/2000/svg" xmlns:xlink="http://www.w3.org/1999/xlink">
    <!-- Generator: Sketch 43.1 (39012) - http://www.bohemiancoding.com/sketch -->
    <title>graphic-artist</title>
    <desc>Created with Sketch.</desc>
    <defs></defs>
    <g id="AssetMaker" stroke="none" stroke-width="1" fill="none" fill-rule="evenodd" opacity="0.300000012">
        <g id="-Asset-Maker" transform="translate(-40.000000, -856.000000)" fill="#C2C2C2">
            <path d="M122.931722,874.994625 C119.870795,881.695513 111.881129,884.6115 105.086302,881.507662 C98.2914761,878.403825 95.2645527,870.455525 98.3254797,863.754636 C101.386407,857.053747 109.376073,854.137761 116.1709,857.241598 C122.965726,860.345436 125.992649,868.293736 122.931722,874.994625 Z M103.976745,943.528372 C98.9863072,939.122171 93.6412735,936.410986 91.4259367,935.399628 L56.715831,976.586305 C55.3081196,978.25727 53.3115888,979.114699 51.3026057,979.114699 C49.6671938,979.114699 48.0240732,978.546487 46.6833675,977.384808 C43.6953905,974.795083 43.3437592,970.242169 45.8959031,967.212304 L56.1987609,954.989425 L56.3636066,955.269022 L56.5302313,954.594984 L81.2244768,925.293265 L81.4112624,923.550747 C81.6526013,923.582615 81.897498,923.597648 82.1447666,923.597648 L82.1459525,923.597648 C82.3285873,923.597648 82.5070714,923.574197 82.6873343,923.557963 C83.6781876,923.465365 84.6299048,923.137666 85.462435,922.567049 C86.1923814,922.066781 86.7717133,921.425212 87.2016167,920.706679 C87.7827276,919.733804 88.0809916,918.616019 88.0655744,917.487411 L96.8308604,912.164253 C97.6189179,913.110071 98.6850783,914.286782 100.013925,915.497766 C101.712784,917.037651 103.389704,918.233001 105.14371,919.154768 C106.411481,919.816179 109.287979,920.349517 111.167695,920.687438 L109.412503,929.482403 C114.577274,933.340234 120.251406,938.736147 124.43659,946.133731 C127.786872,952.059374 130.077516,959.331289 130.065656,967.622379 C130.065656,969.120776 129.992128,970.646231 129.844478,972.195136 C129.486324,975.923691 126.39102,978.714245 122.771529,978.714245 C122.541457,978.714245 122.309013,978.703422 122.074789,978.679972 C118.162965,978.295752 115.298918,974.768025 115.678419,970.803166 C115.783968,969.698008 115.833778,968.638547 115.833778,967.621778 C115.823104,962.157319 114.44682,957.656115 112.289594,953.670211 C110.13059,949.702345 107.132532,946.298482 103.976745,943.528372 Z M122.319686,907.976318 L123.441586,908.041256 L125.321894,908.151892 C125.141631,909.75371 124.714693,911.382585 123.920113,912.941111 C122.82549,915.11535 120.976015,917.049075 118.634376,918.310567 C117.342887,919.018878 115.977869,919.48848 114.628269,919.716366 C114.487735,919.739816 114.347794,919.756051 114.209039,919.766874 C113.64631,919.842034 113.089511,919.887732 112.545758,919.887732 C112.490018,919.887732 112.435465,919.881719 112.379133,919.881719 C112.026909,919.876909 111.680614,919.855864 111.339656,919.823996 C109.214451,919.62437 107.313388,918.933496 105.685685,918.084485 C103.747265,917.066513 102.136165,915.809831 100.803761,914.60005 C99.5774985,913.483468 98.5872383,912.401159 97.8584778,911.538919 C97.5584349,911.184162 97.3046436,910.867286 97.097104,910.601519 C96.7181961,910.115682 96.4946463,909.795198 96.4489876,909.732665 C96.0659288,909.181289 95.8139165,908.575797 95.6846489,907.955273 C95.5921456,907.509722 95.5624971,907.056355 95.5957034,906.608399 C95.6971013,905.223645 96.3861327,903.894208 97.5928272,903.031367 C99.0058752,902.020009 100.772927,901.908171 102.246458,902.568981 C102.649677,902.749967 103.030364,902.989277 103.376066,903.284507 C103.681446,903.544863 103.962513,903.8437 104.202666,904.190039 L104.203259,904.189438 C104.214526,904.205673 104.237652,904.236939 104.270858,904.282036 C104.337864,904.373431 104.44697,904.518941 104.59462,904.705339 C104.781998,904.944048 105.037568,905.253709 105.337611,905.59644 C105.509573,905.793059 105.691615,905.998097 105.89441,906.213957 C105.980391,906.306555 106.073487,906.400956 106.164212,906.495358 C107.248162,907.616751 108.689672,908.842165 110.036308,909.534242 C111.013523,910.047737 111.875701,910.272016 112.545758,910.267807 C112.728985,910.266604 112.900354,910.252775 113.069943,910.224514 L113.069943,910.225717 C113.133391,910.215495 113.196839,910.211888 113.259694,910.20347 C113.264438,910.202868 113.269774,910.202267 113.275111,910.201666 L113.277483,910.180621 C113.538983,910.116885 113.813528,910.015869 114.133139,909.8427 C114.919417,909.395345 115.221239,909.020145 115.495785,908.51627 C115.755506,908.012395 115.940512,907.275823 115.940512,906.272282 C115.95,904.969302 115.593625,903.280298 114.968634,901.639397 L113.276297,910.119891 C111.25664,909.630447 108.505851,907.158573 107.210804,905.859802 L114.815055,901.241949 L115.080705,901.080805 L122.364752,896.657167 L122.323837,906.836285 L122.319686,907.976318 Z M78.2015145,922.075199 L60.7249027,932.688444 L55.9076125,952.159788 L53.7527587,948.511203 L57.6361208,932.812308 L42.1554468,928.875709 L40,925.227124 L59.1991903,930.111345 L76.4018498,919.665257 C76.6710583,920.091567 76.9414527,920.519079 77.2278574,920.947794 C77.5077393,921.369293 77.8362448,921.746297 78.2015145,922.075199 Z M95.5180243,910.479458 C95.6484778,910.662248 95.8376353,910.918996 96.0718585,911.223245 L87.9007287,916.185633 C87.7400337,915.501373 87.4648955,914.833949 87.0545601,914.217634 C86.8891214,913.969906 86.7331703,913.726386 86.578405,913.48467 L94.6256041,908.597443 C94.8029022,909.234202 95.0810052,909.854124 95.4782953,910.425343 L95.5132805,910.472844 L95.5180243,910.479458 Z M105.21961,903.562901 L105.17158,903.497361 C104.953367,903.184093 104.701354,902.903294 104.433925,902.641736 L112.82564,897.545262 L116.194303,895.499697 L120.977201,892.595501 L123.575597,891.017133 L123.60406,884.092158 C122.751961,883.16017 122.25268,881.841556 122.333917,880.405091 C122.483346,877.751029 124.549847,875.713281 126.944854,875.852779 C129.342825,875.992276 131.16443,878.257309 131.013816,880.910169 C130.932579,882.346634 130.28802,883.597904 129.336896,884.42587 L126.863024,907.038316 L125.413212,906.953535 L123.509777,906.842899 L123.548913,897.479722 L123.560773,894.529227 L122.483346,895.183423 L115.39913,899.485602 L114.325854,900.137392 L106.371752,904.968099 C106.003517,904.556221 105.71474,904.202666 105.519653,903.954336 C105.382084,903.781768 105.281872,903.646479 105.21961,903.562901 Z M77.4164219,919.048942 C77.1993948,918.706812 76.9942271,918.366486 76.7902453,918.02616 C74.6098938,914.397418 73.1345838,910.966498 72.2913802,907.734602 C71.6984099,905.464158 71.4131912,903.289919 71.4120053,901.213689 C71.3954021,896.300606 73.0657993,892.097037 75.422263,889.033501 C77.7828775,885.951926 80.7174872,883.928008 83.511563,882.727246 C85.3978013,881.935958 87.1933152,881.471767 89.0920059,881.457938 C89.3208924,881.457938 89.5545226,881.471767 89.7899318,881.489205 C90.1629101,881.470565 90.5424111,881.492812 90.9254698,881.570979 L113.379474,886.179211 C113.878162,886.281429 114.338307,886.465422 114.755758,886.708941 C116.350848,887.381176 117.425903,888.361868 118.488505,889.420126 C119.126541,890.088753 119.728999,890.819913 120.298843,891.605188 L116.513321,893.903893 L112.093914,896.587418 L103.428247,901.850447 C102.504993,901.274418 101.435274,900.948523 100.322269,900.948523 C99.0948208,900.948523 97.914217,901.328534 96.9091325,902.047668 C95.1717297,903.291121 94.3000634,905.31504 94.4156926,907.323926 L85.9457058,912.467901 C84.666669,910.34417 83.7920379,908.472977 83.2032184,906.844102 L84.6737846,893.138459 C84.5308788,893.254507 84.3850081,893.365143 84.2468461,893.49021 C82.3564569,895.24776 80.9303635,897.536243 80.900122,901.21429 C80.8989361,901.907569 80.9588261,902.668192 81.0886866,903.490747 C81.3519654,905.163516 81.9224027,907.107464 82.9357889,909.332211 C83.4694621,910.504111 84.127659,911.754178 84.9299478,913.084216 C85.1309647,913.418529 85.3414691,913.758254 85.5614611,914.102188 C85.7280857,914.364347 85.8935244,914.624101 86.0714155,914.891672 C86.4752282,915.496563 86.718939,916.162183 86.8227088,916.839829 C86.8944582,917.303418 86.897423,917.771817 86.8351611,918.2324 C86.6596419,919.540792 85.961123,920.771618 84.7971224,921.568919 C83.9829743,922.12691 83.0591267,922.39448 82.1453595,922.39448 C81.9425637,922.39448 81.7397679,922.379448 81.538751,922.352391 C81.1788181,922.304889 80.8248148,922.218305 80.4838569,922.090231 C80.0575113,921.929689 79.6566635,921.699397 79.28665,921.416193 C78.8804654,921.10533 78.5122309,920.728325 78.211002,920.276161 C77.9364568,919.864883 77.673178,919.456612 77.4164219,919.048942 Z" id="graphic-artist"></path>
        </g>
    </g>
</svg>