<?xml version="1.0" encoding="UTF-8"?>
<svg width="25px" height="23px" viewBox="0 0 25 23" version="1.1" xmlns="http://www.w3.org/2000/svg" xmlns:xlink="http://www.w3.org/1999/xlink">
    <!-- Generator: Sketch 43.1 (39012) - http://www.bohemiancoding.com/sketch -->
    <title>icon-event-3</title>
    <desc>Created with Sketch.</desc>
    <defs>
        <rect id="path-1" x="0" y="0" width="25" height="23"></rect>
    </defs>
    <g id="AssetMaker" stroke="none" stroke-width="1" fill="none" fill-rule="evenodd">
        <g id="-Asset-Maker" transform="translate(-114.000000, -38.000000)">
            <g id="icon-event-3" transform="translate(114.000000, 38.000000)">
                <g id="Icon-placeholder">
                    <g id="Rectangle-15">
                        <use fill-opacity="0.5" fill="#D8D8D8" fill-rule="evenodd" xlink:href="#path-1"></use>
                        <rect stroke="#F6F6F6" stroke-width="1" x="0.5" y="0.5" width="24" height="22"></rect>
                    </g>
                </g>
                <g id="fa-cutlery-copy" transform="translate(6.000000, 3.000000)" fill="#9B1449">
                    <path d="M1.08113636,7.9525 C1.28022727,8.22795455 1.55568182,8.42704545 1.87681818,8.54909091 L1.87681818,15.1913636 C1.87681818,15.4975 1.98386364,15.7572727 2.19795455,15.9713636 C2.41272727,16.1861364 2.6725,16.2931818 2.96363636,16.2931818 L4.06545455,16.2931818 C4.35590909,16.2931818 4.61636364,16.1861364 4.83045455,15.9713636 C5.04454545,15.7572727 5.15159091,15.4975 5.15159091,15.1913636 L5.15159091,8.54909091 C5.47340909,8.42704545 5.73318182,8.22795455 5.93227273,7.9525 C6.13136364,7.66136364 6.23840909,7.34022727 6.23840909,7.00340909 L6.23840909,1.54 C6.23840909,1.38727273 6.17704545,1.26454545 6.07,1.14181818 C5.96295455,1.03477273 5.84090909,0.989090909 5.70318182,0.989090909 C5.54977273,0.989090909 5.42772727,1.03477273 5.32,1.14181818 C5.21295455,1.26454545 5.15159091,1.38727273 5.15159091,1.54 L5.15159091,5.09022727 C5.15159091,5.22795455 5.09090909,5.36636364 4.98318182,5.47340909 C4.87613636,5.58045455 4.75409091,5.62613636 4.60068182,5.62613636 C4.44795455,5.62613636 4.32522727,5.58045455 4.21818182,5.47340909 C4.11113636,5.36636364 4.04977273,5.22795455 4.04977273,5.09022727 L4.04977273,1.54 C4.04977273,1.38727273 3.98909091,1.26454545 3.88204545,1.14181818 C3.77431818,1.03477273 3.65227273,0.989090909 3.51454545,0.989090909 C3.36113636,0.989090909 3.23909091,1.03477273 3.13204545,1.14181818 C3.025,1.26454545 2.96363636,1.38727273 2.96363636,1.54 L2.96363636,5.09022727 C2.96363636,5.22795455 2.90227273,5.36636364 2.79522727,5.47340909 C2.68818182,5.58045455 2.56545455,5.62613636 2.41272727,5.62613636 C2.25931818,5.62613636 2.13727273,5.58045455 2.03022727,5.47340909 C1.9225,5.36636364 1.86181818,5.22795455 1.86181818,5.09022727 L1.86181818,1.54 C1.86181818,1.38727273 1.80045455,1.26454545 1.69340909,1.14181818 C1.58636364,1.03477273 1.46363636,0.989090909 1.32590909,0.989090909 C1.17318182,0.989090909 1.05045455,1.03477273 0.943409091,1.14181818 C0.836363636,1.26454545 0.775,1.38727273 0.775,1.54 L0.775,7.00340909 C0.775,7.34022727 0.882045455,7.66136364 1.08113636,7.9525 L1.08113636,7.9525 Z M7.41659091,10.7377273 C7.47795455,10.7990909 7.53931818,10.8297727 7.61568182,10.8297727 L9.52886364,10.8297727 L9.52886364,15.1913636 C9.52886364,15.4975 9.63590909,15.7572727 9.85,15.9713636 C10.0647727,16.1861364 10.3245455,16.2931818 10.6156818,16.2931818 L11.7175,16.2931818 C12.0079545,16.2931818 12.2684091,16.1861364 12.4825,15.9713636 C12.6965909,15.7572727 12.8036364,15.4975 12.8036364,15.1913636 L12.8036364,1.54 C12.8036364,1.38727273 12.7429545,1.26454545 12.6352273,1.14181818 C12.5281818,1.03477273 12.4061364,0.989090909 12.2527273,0.989090909 L10.0797727,0.989090909 C9.31477273,0.989090909 8.67181818,1.24954545 8.13590909,1.78477273 C7.60068182,2.32068182 7.34022727,2.96295455 7.34022727,3.71295455 L7.34022727,10.5543182 C7.34022727,10.6306818 7.37090909,10.6920455 7.41659091,10.7377273 L7.41659091,10.7377273 Z" id="Fill-121"></path>
                </g>
            </g>
        </g>
    </g>
</svg>