<?xml version="1.0" encoding="UTF-8"?>
<svg width="8px" height="13px" viewBox="0 0 8 13" version="1.1" xmlns="http://www.w3.org/2000/svg" xmlns:xlink="http://www.w3.org/1999/xlink">
    <!-- Generator: Sketch 43.1 (39012) - http://www.bohemiancoding.com/sketch -->
    <title>icon-event-place</title>
    <desc>Created with Sketch.</desc>
    <defs>
        <linearGradient x1="50%" y1="0%" x2="50%" y2="100%" id="linearGradient-1">
            <stop stop-color="#D11542" offset="0%"></stop>
            <stop stop-color="#9A1449" offset="100%"></stop>
        </linearGradient>
    </defs>
    <g id="AssetMaker" stroke="none" stroke-width="1" fill="none" fill-rule="evenodd">
        <g id="-Asset-Maker" transform="translate(-121.000000, -93.000000)" fill="url(#linearGradient-1)">
            <path d="M121.251733,98.6265178 L124.104915,104.6758 C124.189033,104.857959 124.3149,104.983973 124.468806,105.081914 C124.63642,105.179855 124.818366,105.236 125.000312,105.236 C125.182257,105.236 125.36358,105.179855 125.531817,105.081914 C125.685723,104.983973 125.81159,104.857959 125.895085,104.6758 L128.748267,98.6265178 C128.916504,98.2628247 129,97.8005664 129,97.2266425 C129,96.1343157 128.608692,95.1823506 127.825454,94.4119201 C127.042215,93.6277654 126.10507,93.236 125.000312,93.236 C123.895553,93.236 122.958408,93.6277654 122.175169,94.4119201 C121.391931,95.1823506 121,96.1343157 121,97.2266425 C121,97.8005664 121.084119,98.2628247 121.251733,98.6265178 L121.251733,98.6265178 Z M125.000312,95.2384953 C125.545525,95.2384953 126.020952,95.434378 126.412883,95.8261435 C126.80419,96.2185328 127.000467,96.6801672 127.000467,97.2266425 C127.000467,97.7862183 126.80419,98.2484766 126.412883,98.6408659 C126.020952,99.0326313 125.545525,99.228514 125.000312,99.228514 C124.454475,99.228514 123.979048,99.0326313 123.58774,98.6408659 C123.19581,98.2484766 123.000156,97.7862183 123.000156,97.2266425 C123.000156,96.6801672 123.19581,96.2185328 123.58774,95.8261435 C123.979048,95.434378 124.454475,95.2384953 125.000312,95.2384953 L125.000312,95.2384953 Z" id="icon-event-place"></path>
        </g>
    </g>
</svg>