<?xml version="1.0" encoding="UTF-8"?>
<svg width="15px" height="16px" viewBox="0 0 15 16" version="1.1" xmlns="http://www.w3.org/2000/svg" xmlns:xlink="http://www.w3.org/1999/xlink">
    <!-- Generator: Sketch 43.1 (39012) - http://www.bohemiancoding.com/sketch -->
    <title>icon-filter-calendar</title>
    <desc>Created with Sketch.</desc>
    <defs></defs>
    <g id="AssetMaker" stroke="none" stroke-width="1" fill="none" fill-rule="evenodd">
        <g id="-Asset-Maker" transform="translate(-50.000000, -165.000000)" fill="#0A0B09">
            <g id="fa-calendar" transform="translate(50.000000, 165.000000)">
                <path d="M0.385714286,15.3815652 C0.61,15.6006957 0.882857143,15.709913 1.18714286,15.709913 L13.7885714,15.709913 C14.0935714,15.709913 14.3657143,15.6006957 14.5907143,15.3815652 C14.815,15.1631304 14.9271429,14.8973913 14.9271429,14.6010435 L14.9271429,3.43652174 C14.9271429,3.14017391 14.815,2.87443478 14.5907143,2.656 C14.3657143,2.43756522 14.0935714,2.32834783 13.7885714,2.32834783 L12.6342857,2.32834783 L12.6342857,1.48521739 C12.6342857,1.11026087 12.49,0.782608696 12.2178571,0.501565217 C11.9292857,0.235826087 11.5921429,0.0953043478 11.2078571,0.0953043478 L10.6307143,0.0953043478 C10.2457143,0.0953043478 9.90928571,0.235826087 9.62071429,0.501565217 C9.34785714,0.782608696 9.20357143,1.11026087 9.20357143,1.48521739 L9.20357143,2.32834783 L5.77285714,2.32834783 L5.77285714,1.48521739 C5.77285714,1.11026087 5.62857143,0.782608696 5.35571429,0.501565217 C5.06714286,0.235826087 4.73071429,0.0953043478 4.34571429,0.0953043478 L3.76857143,0.0953043478 C3.38357143,0.0953043478 3.04714286,0.235826087 2.75857143,0.501565217 C2.48571429,0.782608696 2.34142857,1.11026087 2.34142857,1.48521739 L2.34142857,2.32834783 L1.20357143,2.32834783 C0.882857143,2.32834783 0.61,2.43756522 0.385714286,2.656 C0.161428571,2.87443478 0.0485714286,3.14017391 0.0485714286,3.43652174 L0.0485714286,14.6010435 C0.0485714286,14.8973913 0.161428571,15.1631304 0.385714286,15.3815652 L0.385714286,15.3815652 Z M1.18714286,12.0869565 L3.76857143,12.0869565 L3.76857143,14.6010435 L1.18714286,14.6010435 L1.18714286,12.0869565 Z M1.18714286,8.72973913 L3.76857143,8.72973913 L3.76857143,11.5248696 L1.18714286,11.5248696 L1.18714286,8.72973913 Z M1.18714286,5.66956522 L3.76857143,5.66956522 L3.76857143,8.16765217 L1.18714286,8.16765217 L1.18714286,5.66956522 Z M3.48,1.48521739 C3.48,1.4066087 3.51214286,1.34469565 3.56,1.28208696 C3.62428571,1.23547826 3.68857143,1.20417391 3.76857143,1.20417391 L4.34571429,1.20417391 C4.42571429,1.20417391 4.49,1.23547826 4.55428571,1.28208696 C4.60214286,1.34469565 4.63428571,1.4066087 4.63428571,1.48521739 L4.63428571,3.9986087 C4.63428571,4.07721739 4.60214286,4.13913043 4.55428571,4.20173913 C4.49,4.24904348 4.42571429,4.27965217 4.34571429,4.27965217 L3.76857143,4.27965217 C3.68857143,4.27965217 3.62428571,4.24904348 3.56,4.20173913 C3.51214286,4.13913043 3.48,4.07721739 3.48,3.9986087 L3.48,1.48521739 L3.48,1.48521739 Z M4.34571429,12.0869565 L7.19928571,12.0869565 L7.19928571,14.6010435 L4.34571429,14.6010435 L4.34571429,12.0869565 Z M4.34571429,8.72973913 L7.19928571,8.72973913 L7.19928571,11.5248696 L4.34571429,11.5248696 L4.34571429,8.72973913 Z M4.34571429,5.66956522 L7.19928571,5.66956522 L7.19928571,8.16765217 L4.34571429,8.16765217 L4.34571429,5.66956522 Z M7.77642857,12.0869565 L10.6464286,12.0869565 L10.6464286,14.6010435 L7.77642857,14.6010435 L7.77642857,12.0869565 Z M7.77642857,8.72973913 L10.6464286,8.72973913 L10.6464286,11.5248696 L7.77642857,11.5248696 L7.77642857,8.72973913 Z M7.77642857,5.66956522 L10.6464286,5.66956522 L10.6464286,8.16765217 L7.77642857,8.16765217 L7.77642857,5.66956522 Z M10.3421429,1.48521739 C10.3421429,1.4066087 10.3735714,1.34469565 10.4221429,1.28208696 C10.4864286,1.23547826 10.55,1.20417391 10.6307143,1.20417391 L11.2078571,1.20417391 C11.2878571,1.20417391 11.3521429,1.23547826 11.4157143,1.28208696 C11.4642857,1.34469565 11.4964286,1.4066087 11.4964286,1.48521739 L11.4964286,3.9986087 C11.4964286,4.07721739 11.4642857,4.13913043 11.4157143,4.20173913 C11.3521429,4.24904348 11.2878571,4.27965217 11.2078571,4.27965217 L10.6307143,4.27965217 C10.55,4.27965217 10.4864286,4.24904348 10.4221429,4.20173913 C10.3735714,4.13913043 10.3421429,4.07721739 10.3421429,3.9986087 L10.3421429,1.48521739 L10.3421429,1.48521739 Z M11.2235714,12.0869565 L13.7885714,12.0869565 L13.7885714,14.6010435 L11.2235714,14.6010435 L11.2235714,12.0869565 Z M11.2235714,8.72973913 L13.7885714,8.72973913 L13.7885714,11.5248696 L11.2235714,11.5248696 L11.2235714,8.72973913 Z M11.2235714,5.66956522 L13.7885714,5.66956522 L13.7885714,8.16765217 L11.2235714,8.16765217 L11.2235714,5.66956522 Z" id="Fill-138"></path>
            </g>
        </g>
    </g>
</svg>