<?xml version="1.0" encoding="UTF-8"?>
<svg width="20px" height="35px" viewBox="0 0 20 35" version="1.1" xmlns="http://www.w3.org/2000/svg" xmlns:xlink="http://www.w3.org/1999/xlink">
    <!-- Generator: Sketch 43.1 (39012) - http://www.bohemiancoding.com/sketch -->
    <title>icon-previous</title>
    <desc>Created with Sketch.</desc>
    <defs></defs>
    <g id="AssetMaker" stroke="none" stroke-width="1" fill="none" fill-rule="evenodd">
        <g id="-Asset-Maker" transform="translate(-58.000000, -524.000000)" fill="#091519">
            <path d="M58.3701165,541.905415 L74.3701165,557.905415 C74.6168609,558.152159 74.8608636,558.275531 75.1706648,558.275531 C75.4146676,558.275531 75.7244688,558.152159 75.9684716,557.905415 L77.6298835,556.244003 C77.8766278,555.997258 78,555.750514 78,555.443454 C78,555.136395 77.8766278,554.88965 77.6298835,554.645648 L64.1549006,541.167923 L77.6298835,527.629883 C77.8766278,527.443454 78,527.136395 78,526.829335 C78,526.582591 77.8766278,526.275531 77.6298835,526.091844 L75.9684716,524.367375 C75.7244688,524.120631 75.4146676,524 75.1706648,524 C74.8608636,524 74.6168609,524.120631 74.3701165,524.367375 L58.3701165,540.367375 C58.1233722,540.551062 58,540.860864 58,541.167923 C58,541.414668 58.1233722,541.721727 58.3701165,541.905415" id="icon-previous"></path>
        </g>
    </g>
</svg>