<?xml version="1.0" encoding="UTF-8"?>
<svg width="12px" height="14px" viewBox="0 0 12 14" version="1.1" xmlns="http://www.w3.org/2000/svg" xmlns:xlink="http://www.w3.org/1999/xlink">
    <!-- Generator: Sketch 43.1 (39012) - http://www.bohemiancoding.com/sketch -->
    <title>icon-event-date</title>
    <desc>Created with Sketch.</desc>
    <defs>
        <linearGradient x1="50%" y1="0%" x2="50%" y2="100%" id="linearGradient-1">
            <stop stop-color="#D11542" offset="0%"></stop>
            <stop stop-color="#9A1449" offset="100%"></stop>
        </linearGradient>
    </defs>
    <g id="AssetMaker" stroke="none" stroke-width="1" fill="none" fill-rule="evenodd">
        <g id="-Asset-Maker" transform="translate(-51.000000, -93.000000)" fill="url(#linearGradient-1)">
            <path d="M51.2719155,105.962633 C51.4528084,106.145071 51.6728757,106.236 51.9182909,106.236 L62.0817091,106.236 C62.3277004,106.236 62.5471916,106.145071 62.7286606,105.962633 C62.9095535,105.780774 63,105.559532 63,105.312807 L63,96.0177428 C63,95.7710174 62.9095535,95.5497753 62.7286606,95.3679166 C62.5471916,95.1860579 62.3277004,95.0951286 62.0817091,95.0951286 L61.1507441,95.0951286 L61.1507441,94.3931772 C61.1507441,94.0810058 61.0343735,93.8082178 60.8148824,93.574234 C60.5821411,93.3529919 60.3102256,93.236 60.000288,93.236 L59.5348056,93.236 C59.2242919,93.236 58.9529525,93.3529919 58.7202112,93.574234 C58.500144,93.8082178 58.3837734,94.0810058 58.3837734,94.3931772 L58.3837734,95.0951286 L55.6168027,95.0951286 L55.6168027,94.3931772 C55.6168027,94.0810058 55.5004321,93.8082178 55.2803649,93.574234 C55.0476236,93.3529919 54.7762842,93.236 54.4657705,93.236 L54.000288,93.236 C53.6897744,93.236 53.4184349,93.3529919 53.1856937,93.574234 C52.9656265,93.8082178 52.8492559,94.0810058 52.8492559,94.3931772 L52.8492559,95.0951286 L51.931541,95.0951286 C51.6728757,95.0951286 51.4528084,95.1860579 51.2719155,95.3679166 C51.0910226,95.5497753 51,95.7710174 51,96.0177428 L51,105.312807 C51,105.559532 51.0910226,105.780774 51.2719155,105.962633 L51.2719155,105.962633 Z M51.9182909,103.219694 L54.000288,103.219694 L54.000288,105.312807 L51.9182909,105.312807 L51.9182909,103.219694 Z M51.9182909,100.42463 L54.000288,100.42463 L54.000288,102.751727 L51.9182909,102.751727 L51.9182909,100.42463 Z M51.9182909,97.8768714 L54.000288,97.8768714 L54.000288,99.9566629 L51.9182909,99.9566629 L51.9182909,97.8768714 Z M53.7675468,94.3931772 C53.7675468,94.3277313 53.793471,94.2761853 53.8320691,94.2240602 C53.8839174,94.185256 53.9357657,94.1591934 54.000288,94.1591934 L54.4657705,94.1591934 C54.5302928,94.1591934 54.5821411,94.185256 54.6339894,94.2240602 C54.6725876,94.2761853 54.6985118,94.3277313 54.6985118,94.3931772 L54.6985118,96.4857104 C54.6985118,96.5511564 54.6725876,96.6027023 54.6339894,96.6548274 C54.5821411,96.6942108 54.5302928,96.7196942 54.4657705,96.7196942 L54.000288,96.7196942 C53.9357657,96.7196942 53.8839174,96.6942108 53.8320691,96.6548274 C53.793471,96.6027023 53.7675468,96.5511564 53.7675468,96.4857104 L53.7675468,94.3931772 L53.7675468,94.3931772 Z M54.4657705,103.219694 L56.7672588,103.219694 L56.7672588,105.312807 L54.4657705,105.312807 L54.4657705,103.219694 Z M54.4657705,100.42463 L56.7672588,100.42463 L56.7672588,102.751727 L54.4657705,102.751727 L54.4657705,100.42463 Z M54.4657705,97.8768714 L56.7672588,97.8768714 L56.7672588,99.9566629 L54.4657705,99.9566629 L54.4657705,97.8768714 Z M57.2327412,103.219694 L59.5474796,103.219694 L59.5474796,105.312807 L57.2327412,105.312807 L57.2327412,103.219694 Z M57.2327412,100.42463 L59.5474796,100.42463 L59.5474796,102.751727 L57.2327412,102.751727 L57.2327412,100.42463 Z M57.2327412,97.8768714 L59.5474796,97.8768714 L59.5474796,99.9566629 L57.2327412,99.9566629 L57.2327412,97.8768714 Z M59.3020643,94.3931772 C59.3020643,94.3277313 59.3274124,94.2761853 59.3665867,94.2240602 C59.4184349,94.185256 59.4697072,94.1591934 59.5348056,94.1591934 L60.000288,94.1591934 C60.0648104,94.1591934 60.1166587,94.185256 60.1679309,94.2240602 C60.2071051,94.2761853 60.2330293,94.3277313 60.2330293,94.3931772 L60.2330293,96.4857104 C60.2330293,96.5511564 60.2071051,96.6027023 60.1679309,96.6548274 C60.1166587,96.6942108 60.0648104,96.7196942 60.000288,96.7196942 L59.5348056,96.7196942 C59.4697072,96.7196942 59.4184349,96.6942108 59.3665867,96.6548274 C59.3274124,96.6027023 59.3020643,96.5511564 59.3020643,96.4857104 L59.3020643,94.3931772 L59.3020643,94.3931772 Z M60.0129621,103.219694 L62.0817091,103.219694 L62.0817091,105.312807 L60.0129621,105.312807 L60.0129621,103.219694 Z M60.0129621,100.42463 L62.0817091,100.42463 L62.0817091,102.751727 L60.0129621,102.751727 L60.0129621,100.42463 Z M60.0129621,97.8768714 L62.0817091,97.8768714 L62.0817091,99.9566629 L60.0129621,99.9566629 L60.0129621,97.8768714 Z" id="icon-event-date"></path>
        </g>
    </g>
</svg>