<?xml version="1.0" encoding="UTF-8"?>
<svg width="25px" height="23px" viewBox="0 0 25 23" version="1.1" xmlns="http://www.w3.org/2000/svg" xmlns:xlink="http://www.w3.org/1999/xlink">
    <!-- Generator: Sketch 43.1 (39012) - http://www.bohemiancoding.com/sketch -->
    <title>icon-event-1</title>
    <desc>Created with Sketch.</desc>
    <defs>
        <rect id="path-1" x="0" y="0" width="25" height="23"></rect>
    </defs>
    <g id="AssetMaker" stroke="none" stroke-width="1" fill="none" fill-rule="evenodd">
        <g id="-Asset-Maker" transform="translate(-40.000000, -38.000000)">
            <g id="icon-event-1" transform="translate(40.000000, 38.000000)">
                <g id="Icon-placeholder">
                    <g id="Rectangle-15">
                        <use fill-opacity="0.5" fill="#D8D8D8" fill-rule="evenodd" xlink:href="#path-1"></use>
                        <rect stroke="#F6F6F6" stroke-width="1" x="0.5" y="0.5" width="24" height="22"></rect>
                    </g>
                </g>
                <g id="fa-users" transform="translate(5.000000, 3.000000)" fill="#9B1449">
                    <path d="M0.789545455,9.16886364 C1.11136364,9.39863636 1.50886364,9.52136364 1.98340909,9.52136364 L3.13090909,9.52136364 C3.7125,8.81704545 4.4625,8.46522727 5.39590909,8.43454545 C4.92204545,7.76090909 4.69227273,7.04159091 4.69227273,6.24590909 C4.69227273,6.0775 4.70727273,5.89409091 4.73795455,5.68 C4.35545455,5.81772727 3.97295455,5.87909091 3.59045455,5.87909091 C3.26863636,5.87909091 2.9325,5.81772727 2.58,5.695 C2.24318182,5.57227273 1.96772727,5.45022727 1.75363636,5.34318182 C1.53954545,5.22045455 1.41681818,5.15909091 1.38681818,5.15909091 C0.6675,5.15909091 0.315,6.15386364 0.315,8.15909091 C0.315,8.60295455 0.468409091,8.93977273 0.789545455,9.16886364 L0.789545455,9.16886364 Z M3.60545455,5.15909091 C4.20272727,5.15909091 4.72295455,4.945 5.15113636,4.51681818 C5.58,4.08795455 5.79409091,3.56772727 5.79409091,2.97113636 C5.79409091,2.37386364 5.58,1.85363636 5.15113636,1.42545455 C4.72295455,0.996590909 4.20272727,0.7825 3.60545455,0.7825 C2.99318182,0.7825 2.47295455,0.996590909 2.05977273,1.42545455 C1.63159091,1.85363636 1.41681818,2.37386364 1.41681818,2.97113636 C1.41681818,3.56772727 1.63159091,4.08795455 2.05977273,4.51681818 C2.47295455,4.945 2.99318182,5.15909091 3.60545455,5.15909091 L3.60545455,5.15909091 Z M3.13090909,15.4893182 C3.54409091,15.8875 4.095,16.0865909 4.78363636,16.0865909 L12.2522727,16.0865909 C12.9409091,16.0865909 13.4918182,15.8875 13.905,15.4893182 C14.3181818,15.0918182 14.5322727,14.5559091 14.5322727,13.8822727 C14.5322727,13.5768182 14.5172727,13.2856818 14.5015909,12.9952273 C14.4865909,12.7040909 14.4409091,12.3979545 14.3795455,12.0611364 C14.3181818,11.725 14.2418182,11.4188636 14.1497727,11.1434091 C14.0584091,10.8522727 13.9356818,10.5768182 13.7829545,10.3013636 C13.6295455,10.0415909 13.4611364,9.79681818 13.2620455,9.61272727 C13.0636364,9.42931818 12.8181818,9.27590909 12.5277273,9.15386364 C12.2372727,9.04681818 11.9154545,8.98545455 11.5636364,8.98545455 C11.5179545,8.98545455 11.3952273,9.04681818 11.2118182,9.16886364 C11.0127273,9.29159091 10.8136364,9.42931818 10.5838636,9.56704545 C10.3547727,9.71977273 10.0486364,9.8575 9.66613636,9.98022727 C9.28363636,10.1029545 8.90045455,10.1636364 8.51795455,10.1636364 C8.13545455,10.1636364 7.75295455,10.1029545 7.37045455,9.98022727 C6.98795455,9.8575 6.68181818,9.71977273 6.45204545,9.56704545 C6.23795455,9.42931818 6.02386364,9.29159091 5.83977273,9.16886364 C5.64068182,9.04681818 5.51863636,8.98545455 5.47295455,8.98545455 C5.12045455,8.98545455 4.79931818,9.04681818 4.50818182,9.15386364 C4.21772727,9.27590909 3.98795455,9.42931818 3.77386364,9.61272727 C3.57477273,9.79681818 3.40636364,10.0415909 3.25363636,10.3013636 C3.10090909,10.5768182 2.97818182,10.8522727 2.88613636,11.1434091 C2.79477273,11.4188636 2.71772727,11.725 2.65704545,12.0611364 C2.59568182,12.3979545 2.55,12.7040909 2.53431818,12.9952273 C2.51931818,13.2856818 2.50363636,13.5768182 2.50363636,13.8822727 C2.50363636,14.5559091 2.71772727,15.0918182 3.13090909,15.4893182 L3.13090909,15.4893182 Z M8.51795455,9.52136364 C9.42136364,9.52136364 10.1863636,9.19954545 10.8293182,8.55659091 C11.4715909,7.91431818 11.7934091,7.14863636 11.7934091,6.24590909 C11.7934091,5.34318182 11.4715909,4.57818182 10.8293182,3.93522727 C10.1863636,3.29227273 9.42136364,2.97113636 8.51795455,2.97113636 C7.59954545,2.97113636 6.83454545,3.29227273 6.19159091,3.93522727 C5.54931818,4.57818182 5.2275,5.34318182 5.2275,6.24590909 C5.2275,7.14863636 5.54931818,7.91431818 6.19159091,8.55659091 C6.83454545,9.19954545 7.59954545,9.52136364 8.51795455,9.52136364 L8.51795455,9.52136364 Z M13.4304545,5.15909091 C14.0427273,5.15909091 14.5629545,4.945 14.9761364,4.51681818 C15.405,4.08795455 15.6190909,3.56772727 15.6190909,2.97113636 C15.6190909,2.37386364 15.405,1.85363636 14.9761364,1.42545455 C14.5629545,0.996590909 14.0427273,0.7825 13.4304545,0.7825 C12.8338636,0.7825 12.3136364,0.996590909 11.8847727,1.42545455 C11.4565909,1.85363636 11.2425,2.37386364 11.2425,2.97113636 C11.2425,3.56772727 11.4565909,4.08795455 11.8847727,4.51681818 C12.3136364,4.945 12.8338636,5.15909091 13.4304545,5.15909091 L13.4304545,5.15909091 Z M13.9206818,9.52136364 L15.0531818,9.52136364 C15.5270455,9.52136364 15.9102273,9.39863636 16.2313636,9.16886364 C16.5525,8.93977273 16.7059091,8.60295455 16.7059091,8.15909091 C16.7059091,6.15386364 16.3534091,5.15909091 15.6497727,5.15909091 C15.6190909,5.15909091 15.4970455,5.22045455 15.2822727,5.34318182 C15.0681818,5.45022727 14.7927273,5.57227273 14.4559091,5.695 C14.1040909,5.81772727 13.7672727,5.87909091 13.4461364,5.87909091 C13.0479545,5.87909091 12.6654545,5.81772727 12.2829545,5.68 C12.3136364,5.89409091 12.3286364,6.0775 12.3286364,6.24590909 C12.3286364,7.04159091 12.0995455,7.76090909 11.6556818,8.43454545 C12.5734091,8.46522727 13.3234091,8.81704545 13.9206818,9.52136364 L13.9206818,9.52136364 Z" id="Fill-72"></path>
                </g>
            </g>
        </g>
    </g>
</svg>