<?xml version="1.0" encoding="UTF-8"?>
<svg width="12px" height="13px" viewBox="0 0 12 13" version="1.1" xmlns="http://www.w3.org/2000/svg" xmlns:xlink="http://www.w3.org/1999/xlink">
    <!-- Generator: Sketch 43.1 (39012) - http://www.bohemiancoding.com/sketch -->
    <title>icon-event-hour</title>
    <desc>Created with Sketch.</desc>
    <defs>
        <linearGradient x1="50%" y1="0%" x2="50%" y2="100%" id="linearGradient-1">
            <stop stop-color="#D11542" offset="0%"></stop>
            <stop stop-color="#9A1449" offset="100%"></stop>
        </linearGradient>
    </defs>
    <g id="AssetMaker" stroke="none" stroke-width="1" fill="none" fill-rule="evenodd">
        <g id="-Asset-Maker" transform="translate(-86.000000, -93.000000)" fill="url(#linearGradient-1)">
            <path d="M88.9968808,104.437497 C89.9070493,104.969624 90.9151591,105.236 92.007486,105.236 C93.0854648,105.236 94.0935745,104.969624 95.0174672,104.437497 C95.9276357,103.891646 96.6556457,103.163636 97.202121,102.253467 C97.7342483,101.328951 98,100.320841 98,99.2428621 C98,98.1505352 97.7342483,97.1424255 97.202121,96.232257 C96.6556457,95.3083643 95.9276357,94.5797305 95.0174672,94.0476032 C94.0935745,93.5017517 93.0854648,93.236 92.007486,93.236 C90.9151591,93.236 89.9070493,93.5017517 88.9968808,94.0476032 C88.0723643,94.5797305 87.3443543,95.3083643 86.8122271,96.232257 C86.2663755,97.1424255 86,98.1505352 86,99.2428621 C86,100.320841 86.2663755,101.328951 86.8122271,102.253467 C87.3443543,103.163636 88.0723643,103.891646 88.9968808,104.437497 L88.9968808,104.437497 Z M89.8646288,95.5603918 C90.5227698,95.1823506 91.2370555,94.985844 92.007486,94.985844 C92.7772926,94.985844 93.4772302,95.1823506 94.1353712,95.5603918 C94.7797879,95.9384329 95.2975671,96.4562121 95.6756082,97.1006288 C96.0536494,97.7587698 96.250156,98.4724317 96.250156,99.2428621 C96.250156,100.012669 96.0536494,100.71323 95.6756082,101.371371 C95.2975671,102.015164 94.7797879,102.533567 94.1353712,102.911608 C93.4772302,103.289649 92.7772926,103.485532 92.007486,103.485532 C91.2370555,103.485532 90.5227698,103.289649 89.8646288,102.911608 C89.2208359,102.533567 88.7024329,102.015164 88.3243918,101.371371 C87.9463506,100.71323 87.7504679,100.012669 87.7504679,99.2428621 C87.7504679,98.4724317 87.9463506,97.7587698 88.3243918,97.1006288 C88.7024329,96.4562121 89.2208359,95.9384329 89.8646288,95.5603918 L89.8646288,95.5603918 Z M90.0748596,100.166755 C90.1166563,100.209175 90.1871491,100.237248 90.2570181,100.237248 L92.7492202,100.237248 C92.8190892,100.237248 92.889582,100.209175 92.9313787,100.166755 C92.9731753,100.124958 93.0012477,100.055089 93.0012477,99.9852202 L93.0012477,96.4980087 C93.0012477,96.4281397 92.9731753,96.3582707 92.9313787,96.3164741 C92.889582,96.2740536 92.8190892,96.2459813 92.7492202,96.2459813 L92.2595134,96.2459813 C92.1890206,96.2459813 92.1191516,96.2740536 92.077355,96.3164741 C92.0349345,96.3582707 92.007486,96.4281397 92.007486,96.4980087 L92.007486,99.2428621 L90.2570181,99.2428621 C90.1871491,99.2428621 90.1166563,99.2709345 90.0748596,99.3127311 C90.033063,99.3545278 90.0049906,99.4250206 90.0049906,99.4948896 L90.0049906,99.9852202 C90.0049906,100.055089 90.033063,100.124958 90.0748596,100.166755 L90.0748596,100.166755 Z" id="icon-event-hour"></path>
        </g>
    </g>
</svg>