<?xml version="1.0" encoding="UTF-8"?>
<svg width="25px" height="23px" viewBox="0 0 25 23" version="1.1" xmlns="http://www.w3.org/2000/svg" xmlns:xlink="http://www.w3.org/1999/xlink">
    <!-- Generator: Sketch 43.1 (39012) - http://www.bohemiancoding.com/sketch -->
    <title>icon-event-2</title>
    <desc>Created with Sketch.</desc>
    <defs>
        <rect id="path-1" x="0" y="0" width="25" height="23"></rect>
    </defs>
    <g id="AssetMaker" stroke="none" stroke-width="1" fill="none" fill-rule="evenodd">
        <g id="-Asset-Maker" transform="translate(-77.000000, -38.000000)">
            <g id="icon-event-2" transform="translate(77.000000, 38.000000)">
                <g id="Icon-placeholder">
                    <g id="Rectangle-15">
                        <use fill-opacity="0.5" fill="#D8D8D8" fill-rule="evenodd" xlink:href="#path-1"></use>
                        <rect stroke="#F6F6F6" stroke-width="1" x="0.5" y="0.5" width="24" height="22"></rect>
                    </g>
                </g>
                <g id="fa-glass-copy" transform="translate(5.000000, 5.000000)" fill="#9B1449">
                    <path d="M0.662,1.27933333 L5.92933333,6.54666667 L5.92933333,12.966 L3.26533333,12.966 C3.116,12.966 2.996,13.0106667 2.89133333,13.1306667 C2.78666667,13.2353333 2.72666667,13.3553333 2.72666667,13.49 C2.72666667,13.6393333 2.78666667,13.7593333 2.89133333,13.864 C2.996,13.9686667 3.116,14.0286667 3.26533333,14.0286667 L10.732,14.0286667 C10.882,14.0286667 11.002,13.9686667 11.1066667,13.864 C11.2113333,13.7593333 11.2713333,13.6393333 11.2713333,13.49 C11.2713333,13.3553333 11.2113333,13.2353333 11.1066667,13.1306667 C11.002,13.0106667 10.882,12.966 10.732,12.966 L8.06866667,12.966 L8.06866667,6.54666667 L13.336,1.27933333 C13.5753333,1.04 13.6953333,0.815333333 13.6953333,0.620666667 C13.6953333,0.501333333 13.65,0.396666667 13.5453333,0.321333333 C13.4406667,0.246666667 13.336,0.202 13.2313333,0.172 C13.1113333,0.157333333 12.992,0.142 12.872,0.142 L1.12533333,0.142 C1.006,0.142 0.886,0.157333333 0.766666667,0.172 C0.662,0.202 0.557333333,0.246666667 0.452,0.321333333 C0.347333333,0.396666667 0.302666667,0.501333333 0.302666667,0.620666667 C0.302666667,0.815333333 0.422,1.04 0.662,1.27933333" id="Fill-218"></path>
                </g>
            </g>
        </g>
    </g>
</svg>