<?xml version="1.0" encoding="UTF-8"?>
<svg width="17px" height="12px" viewBox="0 0 17 12" version="1.1" xmlns="http://www.w3.org/2000/svg" xmlns:xlink="http://www.w3.org/1999/xlink">
    <!-- Generator: Sketch 43.1 (39012) - http://www.bohemiancoding.com/sketch -->
    <title>icon-filter-price</title>
    <desc>Created with Sketch.</desc>
    <defs></defs>
    <g id="AssetMaker" stroke="none" stroke-width="1" fill="none" fill-rule="evenodd">
        <g id="-Asset-Maker" transform="translate(-97.000000, -165.000000)" fill="#0A0B09">
            <g id="fa-money" transform="translate(97.000000, 165.000000)">
                <path d="M0.4828,11.4910588 C0.58956,11.6018824 0.71196,11.6654118 0.86428,11.6654118 L16.11192,11.6654118 C16.26492,11.6654118 16.38664,11.6018824 16.4934,11.4910588 C16.60084,11.3802353 16.66136,11.2531765 16.66136,11.0950588 L16.66136,0.923294118 C16.66136,0.764470588 16.60084,0.638117647 16.4934,0.527294118 C16.38664,0.416470588 16.26492,0.352941176 16.11192,0.352941176 L0.86428,0.352941176 C0.71196,0.352941176 0.58956,0.416470588 0.4828,0.527294118 C0.37604,0.638117647 0.31484,0.764470588 0.31484,0.923294118 L0.31484,11.0950588 C0.31484,11.2531765 0.37604,11.3802353 0.4828,11.4910588 L0.4828,11.4910588 Z M1.39876,3.74329412 C1.99376,3.74329412 2.5126,3.52164706 2.94032,3.07764706 C3.36736,2.63435294 3.58088,2.09576471 3.58088,1.47741176 L13.39532,1.47741176 C13.39532,2.09576471 13.60884,2.63435294 14.03656,3.07764706 C14.4636,3.52164706 14.98244,3.74329412 15.57812,3.74329412 L15.57812,8.27505882 C14.98244,8.27505882 14.4636,8.49670588 14.03656,8.94 C13.60884,9.384 13.39532,9.92258824 13.39532,10.5402353 L3.58088,10.5402353 C3.58088,9.92258824 3.36736,9.384 2.94032,8.94 C2.5126,8.49670588 1.99376,8.27505882 1.39876,8.27505882 L1.39876,3.74329412 L1.39876,3.74329412 Z M6.45048,8.44870588 C6.664,8.81364706 6.95436,9.11435294 7.30524,9.336 C7.67176,9.57388235 8.0682,9.68470588 8.49592,9.68470588 C8.908,9.68470588 9.30512,9.57388235 9.67096,9.336 C10.02184,9.11435294 10.3122,8.81364706 10.52572,8.44870588 C10.75488,8.08447059 10.92284,7.68847059 11.0296,7.26070588 C11.15132,6.83294118 11.21252,6.42070588 11.21252,6.00917647 C11.21252,5.59694118 11.15132,5.16917647 11.0296,4.75764706 C10.92284,4.32988235 10.75488,3.93317647 10.52572,3.56894118 C10.3122,3.20470588 10.02184,2.90329412 9.67096,2.68164706 C9.30512,2.44447059 8.908,2.33294118 8.49592,2.33294118 C8.0682,2.33294118 7.67176,2.44447059 7.30524,2.68164706 C6.95436,2.90329412 6.664,3.20470588 6.45048,3.56894118 C6.222,3.93317647 6.05404,4.32988235 5.9466,4.75764706 C5.82488,5.16917647 5.76368,5.59694118 5.76368,6.00917647 C5.76368,6.42070588 5.82488,6.83294118 5.9466,7.26070588 C6.05404,7.68847059 6.222,8.08447059 6.45048,8.44870588 L6.45048,8.44870588 Z M8.0682,3.45811765 L9.0304,3.45811765 L9.0304,7.41952941 L10.12928,7.41952941 L10.12928,8.27505882 L6.8476,8.27505882 L6.8476,7.41952941 L7.94648,7.41952941 L7.94648,4.86847059 L7.93084,4.86847059 C7.85468,4.99482353 7.70236,5.15364706 7.45824,5.37529412 L6.80136,4.67788235 L8.0682,3.45811765 L8.0682,3.45811765 Z" id="Fill-190"></path>
            </g>
        </g>
    </g>
</svg>