<?xml version="1.0" encoding="UTF-8"?>
<svg width="70px" height="70px" viewBox="0 0 70 70" version="1.1" xmlns="http://www.w3.org/2000/svg" xmlns:xlink="http://www.w3.org/1999/xlink">
    <!-- Generator: Sketch 43.1 (39012) - http://www.bohemiancoding.com/sketch -->
    <title>icon-profile-chair2</title>
    <desc>Created with Sketch.</desc>
    <defs></defs>
    <g id="AssetMaker" stroke="none" stroke-width="1" fill="none" fill-rule="evenodd">
        <g id="-Asset-Maker" transform="translate(-348.000000, -289.000000)">
            <g id="icon-profile-chair2" transform="translate(348.000000, 289.000000)">
                <rect id="Rectangle-19-Copy-3" fill="#F3F3F3" x="0" y="0" width="70" height="70" rx="35"></rect>
                <g id="Group" transform="translate(16.000000, 13.000000)" fill="#000000">
                    <path d="M34.0047,14.9841563 L31.005,14.9841563 C30.1437,14.9841563 29.44305,15.6811146 29.44305,16.5384271 L29.44305,17.4499375 C29.44305,18.2208021 30.01095,18.8572917 30.75165,18.9786771 L30.75165,22.3689583 C30.5262,22.6023229 30.38535,22.8992917 30.38535,23.2267188 L30.38535,24.0244583 C30.16035,23.4143958 29.7666,22.9051146 29.26845,22.5709688 C29.2194,21.1479375 29.1357,19.8028438 28.99755,19.4669063 C28.9494,19.3486563 28.8162,19.043625 27.53595,18.1706354 C28.0026,16.6804167 28.359,14.8515729 28.55475,12.8614792 C28.89585,9.390125 28.6866,6.09345833 27.99585,4.04289583 C26.71155,0.2338125 19.58985,0.0407604167 18.17595,0.0407604167 C18.1233,0.0407604167 18.08865,0.0412083333 18.072,0.0412083333 C18.0558,0.0412083333 18.0207,0.0407604167 17.96805,0.0407604167 C16.5537,0.0407604167 9.43245,0.2338125 8.1486,4.04289583 C7.4574,6.09345833 7.2486,9.39057292 7.5897,12.8614792 C7.78545,14.851125 8.14185,16.6804167 8.60805,18.1706354 C7.32825,19.043625 7.19505,19.3482083 7.14645,19.4664583 C7.00785,19.8028438 6.92505,21.1519688 6.87555,22.5772396 C6.24555,23.0032083 5.7798,23.709125 5.61465,24.5444896 L5.61465,23.2267188 C5.61465,22.8992917 5.47335,22.6023229 5.2479,22.3685104 L5.2479,18.9786771 C5.9886,18.8572917 6.5565,18.2208021 6.5565,17.4499375 L6.5565,16.5384271 C6.5565,15.6811146 5.85585,14.9841563 4.995,14.9841563 L1.99485,14.9841563 C1.13355,14.9841563 0.43335,15.6811146 0.43335,16.5384271 L0.43335,17.4499375 C0.43335,18.3068021 1.13355,19.0042083 1.99485,19.0042083 L2.54115,19.0042083 L2.54115,22.1750104 C2.18115,22.4222604 1.94535,22.7994063 1.94535,23.2271667 L1.94535,27.8335417 C1.94535,28.5775313 2.6451,29.1831146 3.5064,29.1831146 L4.0527,29.1831146 C4.3254,29.1831146 4.5783,29.1172708 4.8015,29.0102188 L10.4634,30.3441146 L10.4697,30.3181354 C12.2706,31.2533854 14.25195,31.6842813 16.03665,31.8535938 L16.03665,32.1595208 L7.98165,34.8205938 C7.9623,34.8268646 7.9434,34.8344792 7.92405,34.8425417 C7.0164,35.1950521 6.5754,36.2745313 6.91965,37.3056354 C7.1055,37.8632917 7.48485,38.2986667 7.95105,38.5378542 C7.12035,38.8625938 6.5286,39.6639167 6.5286,40.6045417 C6.5286,41.8309375 7.5312,42.8288958 8.7633,42.8288958 C9.9954,42.8288958 10.998,41.8309375 10.998,40.6045417 C10.998,39.67825 10.42605,38.8840938 9.6156,38.5499479 L16.32015,36.3345521 L16.32015,39.2397396 C16.02225,39.6177813 15.83685,40.0876458 15.83685,40.6045417 C15.83685,41.8309375 16.83945,42.8288958 18.07155,42.8288958 C19.3041,42.8288958 20.3067,41.8309375 20.3067,40.6045417 C20.3067,40.0876458 20.1213,39.6177813 19.8234,39.2397396 L19.8234,36.3345521 L26.5284,38.5499479 C25.7175,38.8840938 25.1451,39.67825 25.1451,40.6045417 C25.1451,41.8309375 26.14815,42.8288958 27.38025,42.8288958 C28.61235,42.8288958 29.6154,41.8309375 29.6154,40.6045417 C29.6154,39.6634688 29.02365,38.8621458 28.19295,38.5378542 C28.65915,38.2986667 29.0385,37.8632917 29.22435,37.3056354 C29.56815,36.2731875 29.1249,35.1919167 28.21905,34.8420938 C28.2006,34.8344792 28.18215,34.8273125 28.1619,34.8205938 L20.1069,32.1595208 L20.1069,31.8540417 C22.51215,31.6278438 24.3396,31.0168854 25.7013,30.3051458 L31.1985,29.0102188 C31.4217,29.1168229 31.6746,29.1831146 31.94685,29.1831146 L32.4936,29.1831146 C33.3549,29.1831146 34.05555,28.5775313 34.05555,27.8335417 L34.05555,23.2262708 C34.05555,22.7985104 33.81975,22.4209167 33.45885,22.1736667 L33.45885,19.0033125 L34.0056,19.0033125 C34.8669,19.0033125 35.56755,18.3059063 35.56755,17.4490417 L35.56755,16.5375313 C35.56665,15.6811146 34.866,14.9841563 34.0047,14.9841563 L34.0047,14.9841563 Z M9.3555,28.1009479 C8.88345,27.7058854 8.5167,27.3112708 8.2314,26.9524896 C8.6688,27.0922396 9.1701,27.2373646 9.7623,27.3896563 C11.34315,27.7963646 14.52465,28.4789896 18.0711,28.4816771 L18.0918,28.4816771 L18.0918,28.4816771 C21.7125,28.4816771 24.88005,27.7986042 26.4456,27.391 C26.9649,27.2557292 27.45,27.1137396 27.89685,26.9690625 C26.66385,28.5045208 23.88735,30.7064792 18.07155,30.7064792 L18.07155,31.3281875 L18.07155,30.7064792 C14.40675,30.7060313 11.39265,29.8052708 9.3555,28.1009479 L9.3555,28.1009479 Z M5.61465,27.8330938 L5.61465,27.3901042 L7.3017,27.7878542 C7.479,28.0059896 7.6797,28.2330833 7.91055,28.4651042 L5.6043,27.9213333 C5.6061,27.8917708 5.61465,27.8631042 5.61465,27.8330938 L5.61465,27.8330938 Z M28.8756,27.7453021 L30.38535,27.3896563 L30.38535,27.8326458 C30.38535,27.8626563 30.39345,27.8913229 30.3957,27.9208854 L28.27755,28.4194167 C28.5048,28.1891875 28.70145,27.9629896 28.8756,27.7453021 L28.8756,27.7453021 Z M30.38535,25.7534167 L30.38535,26.4329063 L29.64015,26.6084896 C29.7387,26.4284271 29.8116,26.2765833 29.86245,26.160125 C30.08115,26.0329167 30.2607,25.9003333 30.38535,25.7534167 L30.38535,25.7534167 Z M27.84555,19.9667813 C27.9009,20.2480729 27.95625,21.12375 27.99945,22.1463438 L27.99765,22.1463438 L27.96975,22.1458958 C27.9189,22.1458958 27.88515,22.1512708 27.8433,22.1579896 C27.7254,22.1768021 27.5373,22.2068125 27.2961,22.2430938 C27.26505,21.6151146 27.198,21.0090833 27.0558,20.7604896 C26.9865,20.6395521 26.8425,20.4832292 26.66295,20.3125729 C26.81505,20.0330729 26.96085,19.7235625 27.10035,19.3858333 C27.4572,19.6357708 27.73395,19.8471875 27.84555,19.9667813 L27.84555,19.9667813 Z M10.1862,21.3642813 C10.1889,21.3606979 10.19565,21.354875 10.19925,21.3512917 C10.6947,21.8990938 11.23875,22.193375 11.8242,22.2184583 C12.1032,22.2305521 12.771,22.2368229 13.8654,22.2368229 C15.65145,22.2368229 17.9532,22.2198021 18.07245,22.2193542 C18.1917,22.2198021 20.4939,22.2368229 22.27905,22.2368229 C23.37345,22.2368229 24.04125,22.2305521 24.3207,22.2184583 C24.90615,22.193375 25.4502,21.8990938 25.9452,21.3508438 C25.94835,21.354875 25.95465,21.3606979 25.9578,21.3642813 C25.9992,21.526875 26.0289,21.9326875 26.04825,22.4195729 C24.11415,22.6753333 21.0177,23.0112708 18.07245,23.0112708 C14.9886,23.0108229 12.03525,22.6892188 10.09575,22.419125 C10.1151,21.9313438 10.14525,21.5273229 10.1862,21.3642813 L10.1862,21.3642813 Z M9.33255,4.43840625 C10.1718,1.9484375 15.15555,1.28417708 17.9676,1.28417708 C18.02655,1.28417708 18.05895,1.284625 18.0612,1.284625 L18.0711,1.284625 L18.081,1.284625 C18.08415,1.284625 18.1161,1.28417708 18.1746,1.28417708 C20.9871,1.28417708 25.9704,1.9484375 26.80965,4.43840625 C28.15515,8.43158333 27.30105,17.2577813 25.2855,20.1790938 C25.04115,20.5333958 24.66585,20.9589167 24.264,20.9763854 C24.08715,20.9844479 23.59845,20.9934063 22.2768,20.9934063 C20.45745,20.9934063 18.0981,20.9759375 18.0747,20.9759375 L18.0702,20.9759375 L18.0657,20.9759375 C18.0423,20.9759375 15.6834,20.9934063 13.8636,20.9934063 C12.54195,20.9934063 12.0537,20.9844479 11.87685,20.9763854 C11.475,20.9589167 11.0997,20.5333958 10.85535,20.1790938 C8.84115,17.2577813 7.98705,8.43158333 9.33255,4.43840625 L9.33255,4.43840625 Z M8.298,19.9667813 C8.41005,19.8467396 8.6859,19.6362188 9.0441,19.3858333 C9.18315,19.7231146 9.32895,20.032625 9.4806,20.3116771 C9.30015,20.4827813 9.15795,20.6395521 9.0882,20.7604896 C9.03555,20.8518646 8.90595,21.0843333 8.8497,22.2318958 C8.7057,22.2086042 8.57025,22.1866563 8.45415,22.1669479 C8.33355,22.1463438 8.31195,22.1427604 8.25615,22.1427604 C8.21835,22.1427604 8.18145,22.1472396 8.1441,22.1490313 C8.1873,21.1259896 8.2431,20.2485208 8.298,19.9667813 L8.298,19.9667813 Z M8.2116,23.3875208 C8.2215,23.3893125 8.23275,23.3911042 8.2458,23.3933438 C9.7776,23.6522396 13.8024,24.2542396 18.0765,24.2546875 C22.38615,24.2546875 26.99955,23.55325 27.99765,23.3928958 C28.6965,23.4591875 29.26485,24.1624167 29.33955,25.0255521 C28.4958,25.6029167 23.64705,27.2382604 18.09225,27.2382604 L18.07245,27.2382604 C14.8959,27.2360208 11.99295,26.6505938 10.5453,26.3030104 C8.36415,25.7780521 7.1676,25.2544375 6.80445,25.0183854 C6.8823,24.1207604 7.48035,23.4152917 8.2116,23.3875208 L8.2116,23.3875208 Z M6.27525,26.1466875 C6.33015,26.2725521 6.4116,26.4427604 6.525,26.6474583 L5.61465,26.4329063 L5.61465,25.5446875 C5.69565,25.708625 5.8779,25.9106354 6.27525,26.1466875 L6.27525,26.1466875 Z M1.99485,17.7603438 C1.8225,17.7603438 1.68255,17.6210417 1.68255,17.4494896 L1.68255,16.5379792 C1.68255,16.3664271 1.82295,16.227125 1.99485,16.227125 L4.995,16.227125 C5.1669,16.227125 5.3073,16.366875 5.3073,16.5379792 L5.3073,17.4494896 C5.3073,17.6210417 5.1669,17.7603438 4.995,17.7603438 L2.54115,17.7603438 L1.99485,17.7603438 L1.99485,17.7603438 Z M3.49515,19.0037604 L3.9987,19.0037604 L3.9987,21.8775938 L3.50685,21.8775938 C3.5028,21.8775938 3.4992,21.8784896 3.49515,21.8784896 L3.49515,19.0037604 L3.49515,19.0037604 Z M3.5064,27.9388021 C3.32775,27.9388021 3.2166,27.8608646 3.1941,27.8236875 L3.1941,23.236125 C3.2166,23.1985 3.32775,23.1210104 3.5064,23.1210104 L4.0527,23.1210104 C4.23135,23.1210104 4.3425,23.1985 4.365,23.236125 L4.365,27.8236875 C4.3425,27.8608646 4.23135,27.9388021 4.0527,27.9388021 L3.5064,27.9388021 L3.5064,27.9388021 Z M8.7633,41.5850313 C8.2197,41.5850313 7.7778,41.1447292 7.7778,40.6040938 C7.7778,40.0630104 8.2197,39.6231563 8.7633,39.6231563 C9.3069,39.6231563 9.7488,40.0630104 9.7488,40.6040938 C9.7488,41.1442813 9.3069,41.5850313 8.7633,41.5850313 L8.7633,41.5850313 Z M18.072,41.5850313 C17.5284,41.5850313 17.0865,41.1447292 17.0865,40.6040938 C17.0865,40.0630104 17.5284,39.6231563 18.072,39.6231563 C18.6156,39.6231563 19.0575,40.0630104 19.0575,40.6040938 C19.0575,41.1442813 18.61515,41.5850313 18.072,41.5850313 L18.072,41.5850313 Z M18.57465,38.4411042 C18.4122,38.4034792 18.24525,38.3792917 18.07155,38.3792917 C17.8983,38.3792917 17.73135,38.4034792 17.5689,38.4411042 L17.5689,35.921125 L18.0675,35.7562917 L18.07515,35.7562917 L18.5742,35.921125 L18.5742,38.4411042 L18.57465,38.4411042 Z M27.3807,41.5850313 C26.83755,41.5850313 26.39475,41.1447292 26.39475,40.6040938 C26.39475,40.0630104 26.83755,39.6231563 27.3807,39.6231563 C27.92385,39.6231563 28.36575,40.0630104 28.36575,40.6040938 C28.36575,41.1442813 27.92385,41.5850313 27.3807,41.5850313 L27.3807,41.5850313 Z M27.7497,35.9932396 C27.7533,35.9950313 27.7587,35.9968229 27.76275,35.9990625 C28.0422,36.1052188 28.16775,36.5244688 28.0386,36.9132604 C27.91035,37.297125 27.60885,37.4977917 27.37755,37.4977917 C27.33975,37.4977917 27.30285,37.4928646 27.26775,37.4830104 L27.2547,37.4794271 L18.2484,34.5034688 L18.1098,34.5115313 C18.0846,34.5133229 18.05895,34.5133229 18.03375,34.5115313 L17.89515,34.5034688 L8.8902,37.4789792 L8.8758,37.4830104 C8.84025,37.4928646 8.80335,37.4977917 8.76645,37.4977917 C8.5347,37.4977917 8.2332,37.2975729 8.1054,36.9132604 C7.97535,36.5244688 8.1018,36.1052188 8.38485,35.9972708 C8.38845,35.9959271 8.3916,35.9945833 8.39475,35.9932396 L17.28585,33.05625 L17.28585,31.9337708 C17.5554,31.9431771 17.81955,31.949 18.072,31.949 C18.3411,31.949 18.60075,31.9418333 18.85815,31.9333229 L18.85815,33.05625 L27.7497,35.9932396 L27.7497,35.9932396 Z M32.805,27.8236875 C32.78295,27.8608646 32.67135,27.9388021 32.49315,27.9388021 L31.9464,27.9388021 C31.7682,27.9388021 31.65705,27.8608646 31.63455,27.8236875 L31.63455,23.236125 C31.6575,23.1985 31.7682,23.1210104 31.9464,23.1210104 L32.49315,23.1210104 C32.67135,23.1210104 32.7834,23.1985 32.805,23.236125 L32.805,27.8236875 L32.805,27.8236875 Z M32.5044,21.8789375 C32.50035,21.8789375 32.49675,21.8780417 32.49315,21.8780417 L32.00085,21.8780417 L32.00085,19.0042083 L32.5044,19.0042083 L32.5044,21.8789375 L32.5044,21.8789375 Z M34.3179,17.4499375 C34.3179,17.6214896 34.1775,17.7607917 34.00515,17.7607917 L31.005,17.7607917 C30.83265,17.7607917 30.69225,17.6214896 30.69225,17.4499375 L30.69225,16.5384271 C30.69225,16.366875 30.83265,16.2275729 31.005,16.2275729 L34.0047,16.2275729 C34.17705,16.2275729 34.31745,16.3673229 34.31745,16.5384271 L34.31745,17.4499375 L34.3179,17.4499375 Z" id="Shape"></path>
                </g>
            </g>
        </g>
    </g>
</svg>