<?xml version="1.0" encoding="UTF-8"?>
<svg width="70px" height="70px" viewBox="0 0 70 70" version="1.1" xmlns="http://www.w3.org/2000/svg" xmlns:xlink="http://www.w3.org/1999/xlink">
    <!-- Generator: Sketch 43.1 (39012) - http://www.bohemiancoding.com/sketch -->
    <title>icon-profile-cocktail2</title>
    <desc>Created with Sketch.</desc>
    <defs></defs>
    <g id="AssetMaker" stroke="none" stroke-width="1" fill="none" fill-rule="evenodd">
        <g id="-Asset-Maker" transform="translate(-243.000000, -289.000000)">
            <g id="icon-profile-cocktail2" transform="translate(243.000000, 289.000000)">
                <rect id="Rectangle-19-Copy-2" fill="#F3F3F3" x="0" y="0" width="70" height="70" rx="35"></rect>
                <path d="M36.2334325,58 C36.1540783,58 28.2713834,57.9386103 28.2713834,55.7464193 C28.2713834,54.2347625 31.5387315,53.6607422 33.7017753,53.5332404 C33.8000722,53.1869393 33.8963213,52.6470244 33.96902,51.583985 C34.0724366,50.0854456 34.093939,46.6465707 34.0954749,44.2738834 C31.5837843,43.8268402 27.6222143,41.5727348 27.6222143,36.1137701 C27.6222143,34.1897001 28.3220678,33.1628649 28.8335188,32.4130705 C29.1606632,31.9329712 29.3050368,31.5289533 29.5410518,30.4417777 C30.2050678,27.3822599 28.9522943,25.2761195 28.3497138,24.2639758 C28.0476556,23.7560675 27.7865544,23.3179442 28.0369044,22.7948196 C28.1869095,22.4800004 28.499207,22.2806149 28.8411983,22.2806149 L31.7639952,22.2806149 L30.175374,17.1516857 L24.4434358,13.7112366 C24.0159467,13.4551837 23.873109,12.8921821 24.122947,12.4545834 C24.372273,12.0169847 24.9210973,11.8695444 25.3485865,12.126122 L31.3779751,15.7444439 C31.5694493,15.8593529 31.712287,16.0424727 31.7793541,16.2591733 L33.6439235,22.2800902 L36.1479347,22.2800902 C36.1510065,22.259627 36.1551022,22.2396884 36.1586859,22.2197499 C36.8042713,19.1843682 39.7060778,17.2267176 42.6355302,17.8568807 C43.8565621,18.11923 45.0688905,18.9094261 45.879328,19.9703668 C46.0820654,20.2353396 46.2576687,20.5144793 46.406138,20.8046376 C46.4097217,20.810934 46.4133055,20.8177551 46.4168892,20.8245762 C46.4214969,20.8334961 46.4255926,20.842416 46.4296883,20.8508111 C46.9780007,21.9484807 47.1382451,23.2019858 46.8786799,24.4701824 C46.8720243,24.502189 46.8638329,24.5336709 46.8541056,24.5641035 L46.724579,25.0473509 C46.6590477,25.2908111 46.4993153,25.4959682 46.281731,25.6145501 C46.0641467,25.7326073 45.8091891,25.7556941 45.575222,25.6743658 L43.5488723,24.9759919 C43.0553399,26.3968758 42.5198266,28.6751173 42.9191578,30.3719928 C43.1920341,31.5321015 43.3287282,31.9712742 43.6543367,32.459244 C44.1550365,33.2090384 44.8400431,34.2363983 44.8436268,36.0822881 C44.855402,41.7810401 41.1528853,43.8415317 38.6012615,44.2686364 C38.6027974,46.4094069 38.622252,50.0497661 38.7277164,51.5818862 C38.8009271,52.6454503 38.8966642,53.1858899 38.9954731,53.5327157 C41.1661963,53.6596928 44.1954816,54.2316143 44.1954816,55.7464193 C44.1954816,57.9386103 36.3127868,58 36.2334325,58 L36.2334325,58 Z M31.4158604,55.6803073 C32.5662413,55.9305885 34.2485518,56.1635547 36.2334325,56.1635547 C38.2643899,56.1635547 39.9784421,55.9200946 41.129847,55.6629922 C40.4586634,55.5055826 39.5412257,55.3707351 38.345792,55.3434508 C37.9894657,55.3355803 37.6715367,55.111534 37.5363784,54.7731033 L37.4974692,54.6760341 C37.2563347,54.0862728 37.0623007,53.4933633 36.9394295,51.7104373 C36.8196302,49.9605673 36.8063192,45.7755709 36.808879,43.4364644 C36.8093909,42.9390501 37.196435,42.5324086 37.681264,42.5192911 C37.9014081,42.5135194 43.0645553,42.30364 43.0512442,36.085961 C43.0486844,34.8056963 42.6242671,34.1697616 42.1747635,33.4955238 C41.6387382,32.6922102 41.4462401,31.9487122 41.1769476,30.8022457 C40.9562915,29.8656586 40.9445163,28.8382986 41.0520286,27.8355995 L31.4819036,27.8355995 C31.5668895,28.7333589 31.5300281,29.7376321 31.2904294,30.8405487 C31.0370077,32.0085278 30.825567,32.6979819 30.3079724,33.4572208 C29.8461817,34.1351315 29.4145969,34.767918 29.4145969,36.1137701 C29.4145969,41.3827939 33.8850581,42.522964 34.9919222,42.522964 C35.4864785,42.522964 35.8873455,42.9332784 35.8878575,43.4401373 C35.8904173,45.7818673 35.8771063,49.9705366 35.7573069,51.7130608 C35.6349477,53.4933633 35.4409137,54.0852234 35.2008031,54.6749847 L35.16087,54.7731033 C35.0262237,55.1120586 34.7077827,55.336105 34.3514564,55.3439755 C33.1283767,55.3717845 32.1464316,55.5134531 31.4158604,55.6803073 L31.4158604,55.6803073 Z M31.1204577,25.9991542 L41.3740533,25.9991542 C41.5414652,25.3002557 41.7452265,24.6564504 41.946428,24.1170602 L37.0187838,24.1170602 C37.016736,24.1165355 37.0152001,24.1170602 37.0141761,24.1170602 L33.0080654,24.1170602 C32.9947544,24.1175849 32.9799074,24.1175849 32.9676203,24.1170602 L30.3397141,24.1170602 C30.6059349,24.6197215 30.894682,25.2504093 31.1204577,25.9991542 L31.1204577,25.9991542 Z M44.2477018,23.2796412 L45.1973933,23.6070531 C45.2311828,23.2198255 45.2040488,22.8661786 45.1369816,22.5471619 L44.2359267,23.0304093 C44.2512856,23.112787 44.2548693,23.1967388 44.2477018,23.2796412 L44.2477018,23.2796412 Z M37.9945854,22.2806149 L39.4029957,22.2806149 L38.3212178,21.5114067 C38.1875954,21.7506693 38.0775234,22.0082963 37.9945854,22.2806149 L37.9945854,22.2806149 Z M43.040493,19.9294403 L42.8433872,21.69715 L42.916598,21.6656681 L44.3157929,20.9153491 C43.9604906,20.5071335 43.5125229,20.1634559 43.040493,19.9294403 L43.040493,19.9294403 Z M39.5724554,20.1660794 L41.0904258,21.2453845 L41.2747325,19.585238 C40.6644726,19.6303621 40.0803228,19.8344699 39.5724554,20.1660794 L39.5724554,20.1660794 Z M34.7825293,41.3156324 C34.7415722,41.3156324 34.7006152,41.3130089 34.6586342,41.3067126 C33.4693441,41.1382843 32.0245844,39.733666 31.3702957,38.1102484 C30.6003033,36.1987712 30.8987777,34.1723851 32.2114509,32.4041506 C32.5104373,32.0001327 33.0735967,31.9219526 33.4667843,32.2289013 C33.8609958,32.53585 33.9367664,33.1119691 33.637268,33.5154624 C32.4699923,35.0890336 32.6609545,36.5009977 33.027008,37.409251 C33.5630333,38.7404115 34.6007824,39.4445571 34.9048885,39.4875824 C35.3948371,39.5568426 35.7373403,40.0206762 35.6692493,40.5228128 C35.6067898,40.9829735 35.2228175,41.3156324 34.7825293,41.3156324 L34.7825293,41.3156324 Z" id="Shape" fill="#000000"></path>
            </g>
        </g>
    </g>
</svg>