<?xml version="1.0" encoding="UTF-8"?>
<svg width="20px" height="35px" viewBox="0 0 20 35" version="1.1" xmlns="http://www.w3.org/2000/svg" xmlns:xlink="http://www.w3.org/1999/xlink">
    <!-- Generator: Sketch 43.1 (39012) - http://www.bohemiancoding.com/sketch -->
    <title>icon-next</title>
    <desc>Created with Sketch.</desc>
    <defs></defs>
    <g id="AssetMaker" stroke="none" stroke-width="1" fill="none" fill-rule="evenodd">
        <g id="-Asset-Maker" transform="translate(-111.000000, -523.000000)" fill="#091519">
            <path d="M111.370117,555.244003 L113.091844,556.905415 C113.278273,557.152159 113.585332,557.275531 113.832077,557.275531 C114.139136,557.275531 114.385881,557.152159 114.629883,556.905415 L130.629883,540.905415 C130.876628,540.721727 131,540.414668 131,540.167923 C131,539.860864 130.876628,539.553804 130.629883,539.367375 L114.629883,523.367375 C114.385881,523.123372 114.139136,523 113.832077,523 C113.585332,523 113.278273,523.123372 113.091844,523.367375 L111.370117,525.091844 C111.123372,525.275531 111,525.582591 111,525.829335 C111,526.136395 111.123372,526.446196 111.370117,526.629883 L124.845099,540.167923 L111.370117,553.645648 C111.123372,553.88965 111,554.136395 111,554.443454 C111,554.753256 111.123372,554.997258 111.370117,555.244003" id="icon-next"></path>
        </g>
    </g>
</svg>