<?xml version="1.0" encoding="UTF-8"?>
<svg width="8px" height="13px" viewBox="0 0 8 13" version="1.1" xmlns="http://www.w3.org/2000/svg" xmlns:xlink="http://www.w3.org/1999/xlink">
    <!-- Generator: Sketch 43.1 (39012) - http://www.bohemiancoding.com/sketch -->
    <title>icon-calendar-previous</title>
    <desc>Created with Sketch.</desc>
    <defs></defs>
    <g id="AssetMaker" stroke="none" stroke-width="1" fill="none" fill-rule="evenodd" opacity="0.400000006">
        <g id="-Asset-Maker" transform="translate(-804.000000, -438.000000)" fill="#F3F5F5">
            <g id="fa-angle-left" transform="translate(804.000000, 438.000000)">
                <path d="M0.179,6.747 L6.015,12.583 C6.105,12.673 6.194,12.718 6.307,12.718 C6.396,12.718 6.509,12.673 6.598,12.583 L7.204,11.977 C7.294,11.887 7.339,11.797 7.339,11.685 C7.339,11.573 7.294,11.483 7.204,11.394 L2.289,6.478 L7.204,1.54 C7.294,1.472 7.339,1.36 7.339,1.248 C7.339,1.158 7.294,1.046 7.204,0.979 L6.598,0.35 C6.509,0.26 6.396,0.216 6.307,0.216 C6.194,0.216 6.105,0.26 6.015,0.35 L0.179,6.186 C0.089,6.253 0.044,6.366 0.044,6.478 C0.044,6.568 0.089,6.68 0.179,6.747" id="Fill-49"></path>
            </g>
        </g>
    </g>
</svg>