<?xml version="1.0" encoding="UTF-8"?>
<svg width="20px" height="20px" viewBox="0 0 20 20" version="1.1" xmlns="http://www.w3.org/2000/svg" xmlns:xlink="http://www.w3.org/1999/xlink">
    <!-- Generator: Sketch 43.1 (39012) - http://www.bohemiancoding.com/sketch -->
    <title>selected</title>
    <desc>Created with Sketch.</desc>
    <defs></defs>
    <g id="AssetMaker" stroke="none" stroke-width="1" fill="none" fill-rule="evenodd">
        <g id="-Asset-Maker" transform="translate(-215.000000, -531.000000)" fill="#49C0E8">
            <path d="M219.804,548.956 C221.263,549.809 222.879,550.236 224.63,550.236 C226.38,550.236 227.996,549.809 229.455,548.956 C230.937,548.081 232.104,546.914 232.957,545.455 C233.832,543.973 234.259,542.38 234.259,540.629 C234.259,538.878 233.832,537.262 232.957,535.803 C232.104,534.322 230.937,533.154 229.455,532.302 C227.996,531.426 226.38,531 224.63,531 C222.879,531 221.263,531.426 219.804,532.302 C218.322,533.154 217.155,534.322 216.302,535.803 C215.427,537.262 215,538.878 215,540.629 C215,542.38 215.427,543.973 216.302,545.455 C217.155,546.914 218.322,548.081 219.804,548.956 L219.804,548.956 Z M218.39,540.292 L219.534,539.17 C219.692,539.013 219.871,538.923 220.096,538.923 C220.32,538.923 220.5,539.013 220.657,539.17 L223.485,541.998 L228.603,536.903 C228.76,536.746 228.939,536.656 229.164,536.656 C229.388,536.656 229.568,536.746 229.725,536.903 L230.87,538.025 C231.027,538.182 231.094,538.362 231.094,538.586 C231.094,538.833 231.027,539.013 230.87,539.17 L224.068,545.949 C223.911,546.106 223.709,546.195 223.485,546.195 C223.283,546.195 223.081,546.106 222.924,545.949 L218.39,541.437 C218.233,541.28 218.165,541.078 218.165,540.853 C218.165,540.629 218.233,540.427 218.39,540.292 L218.39,540.292 Z" id="selected"></path>
        </g>
    </g>
</svg>