<?xml version="1.0" encoding="UTF-8"?>
<svg width="36px" height="36px" viewBox="0 0 36 36" version="1.1" xmlns="http://www.w3.org/2000/svg" xmlns:xlink="http://www.w3.org/1999/xlink">
    <!-- Generator: Sketch 43.1 (39012) - http://www.bohemiancoding.com/sketch -->
    <title>social-copyLink</title>
    <desc>Created with Sketch.</desc>
    <defs></defs>
    <g id="AssetMaker" stroke="none" stroke-width="1" fill="none" fill-rule="evenodd">
        <g id="-Asset-Maker" transform="translate(-234.000000, -609.000000)">
            <g id="social-copyLink" transform="translate(234.000000, 609.000000)">
                <g id="Group-2">
                    <rect id="Rectangle-21-Copy" fill="#B6B6B6" x="0" y="0" width="36" height="36" rx="18"></rect>
                    <path d="M9.95073552,16.1886573 L12.3000407,18.5379624 C12.9279656,19.1658873 13.6975344,19.4897739 14.6087473,19.4897739 C15.5199601,19.4897739 16.3093772,19.1658873 16.9580524,18.4973638 L17.9495603,19.4897739 C17.281939,20.1375469 16.9580524,20.9278662 16.9580524,21.8589272 C16.9580524,22.7502919 17.2611886,23.5198607 17.8891135,24.1468834 L20.2176682,26.4961886 C20.8455931,27.1241135 21.615162,27.448 22.5263748,27.448 C23.4177394,27.448 24.1873083,27.1439617 24.8152332,26.516939 L26.4752645,24.8560055 C27.1031894,24.2280806 27.4270759,23.4585117 27.4270759,22.5680493 C27.4270759,21.6568365 27.1031894,20.8872676 26.4752645,20.2593427 L24.1259593,17.9100376 C23.4989366,17.2821127 22.7293678,16.9582261 21.8380031,16.9582261 C20.9267903,16.9582261 20.1373732,17.2821127 19.488698,17.9506362 L18.4962879,16.9582261 C19.1648114,16.3104531 19.488698,15.521036 19.488698,14.5890728 C19.488698,13.6977081 19.1855618,12.9281393 18.5576369,12.3011166 L16.22818,9.95181142 C15.6011573,9.32388654 14.8315884,9 13.9203756,9 C13.0091628,9 12.2395939,9.30403834 11.611669,9.93196322 L9.95073552,11.5919945 C9.32371283,12.2199194 8.9989241,12.9687379 8.9989241,13.8808529 C8.9989241,14.7920657 9.32371283,15.5607324 9.95073552,16.1886573 L9.95073552,16.1886573 Z M11.4898732,13.1311322 L13.1508067,11.4701987 C13.3736479,11.268108 13.6163372,11.1670626 13.9203756,11.1670626 C14.2235117,11.1670626 14.4671033,11.268108 14.6899444,11.4909491 L16.9977488,13.8195039 C17.22059,14.0423451 17.3225376,14.2850344 17.3225376,14.5890728 C17.3225376,14.9129593 17.2007418,15.1763991 16.9580524,15.4190884 C16.937302,15.3992402 16.8561049,15.318043 16.7550595,15.1962473 C16.6332637,15.0753537 16.5529687,14.9941565 16.5123701,14.9535579 C16.4510211,14.9129593 16.3905743,14.8723607 16.289529,14.7920657 C16.1884836,14.7108685 16.086536,14.67027 16.006241,14.6495196 C15.9042934,14.6098232 15.803248,14.6098232 15.6814523,14.6098232 C15.3981643,14.6098232 15.1347246,14.7108685 14.9118834,14.9129593 C14.7097926,15.1358005 14.6087473,15.3992402 14.6087473,15.6825282 C14.6087473,15.8043239 14.6087473,15.9053693 14.6493459,16.0064147 C14.6691941,16.0876119 14.7097926,16.1886573 14.7909898,16.2897027 C14.872187,16.3916502 14.9118834,16.452097 14.952482,16.5125438 C14.9930806,16.5531424 15.0742778,16.6343396 15.1960736,16.7561354 C15.3169671,16.8571808 15.3981643,16.9383779 15.4189147,16.9582261 C15.1960736,17.1810673 14.9118834,17.3028631 14.6087473,17.3028631 C14.3047089,17.3028631 14.0412692,17.2018177 13.8391784,16.9988247 L11.4898732,14.6495196 C11.2670321,14.4474288 11.1659867,14.183989 11.1659867,13.8808529 C11.1659867,13.5966628 11.2670321,13.333223 11.4898732,13.1311322 L11.4898732,13.1311322 Z M19.488698,21.0289116 C19.5094484,21.0487598 19.5906455,21.129957 19.6916909,21.2310023 C19.8125845,21.3527981 19.8937817,21.4339953 19.9343803,21.4745939 C19.9749789,21.5142903 20.0561761,21.5756393 20.1572214,21.6568365 C20.2582668,21.7172833 20.339464,21.77773 20.4405094,21.7984804 C20.5415548,21.8183286 20.6435023,21.839079 20.7445477,21.839079 C21.0485861,21.839079 21.3111236,21.7371315 21.5141166,21.5142903 C21.7369577,21.3121995 21.8380031,21.0487598 21.8380031,20.7456236 C21.8380031,20.6436761 21.8181549,20.5426307 21.7974045,20.4415853 C21.7775563,20.3405399 21.7162074,20.2593427 21.6557606,20.1582973 C21.5745634,20.0563498 21.5141166,19.995903 21.473518,19.9354562 C21.4329194,19.8948576 21.3517222,19.8136604 21.2308286,19.6918646 C21.1090329,19.5908192 21.0485861,19.5096221 21.0278357,19.4897739 C21.2506768,19.2470845 21.5141166,19.1252887 21.8380031,19.1252887 C22.1420415,19.1252887 22.3847308,19.2263341 22.607572,19.4491753 L24.9361268,21.7984804 C25.1589679,22.0005712 25.2600133,22.264011 25.2600133,22.5680493 C25.2600133,22.8513372 25.1589679,23.114777 24.9361268,23.3168678 L23.2959437,24.9570509 C23.0731025,25.1600438 22.8304131,25.2610892 22.5263748,25.2610892 C22.2223365,25.2610892 21.9597989,25.1600438 21.7568059,24.9570509 L19.4480994,22.6086479 C19.2252582,22.4056549 19.1242128,22.1422152 19.1242128,21.8589272 C19.1242128,21.5350407 19.2460086,21.2517527 19.488698,21.0289116 L19.488698,21.0289116 Z" id="Fill-44" fill="#FFFFFF"></path>
                </g>
            </g>
        </g>
    </g>
</svg>