<?xml version="1.0" encoding="UTF-8"?>
<svg width="36px" height="36px" viewBox="0 0 36 36" version="1.1" xmlns="http://www.w3.org/2000/svg" xmlns:xlink="http://www.w3.org/1999/xlink">
    <!-- Generator: Sketch 43.1 (39012) - http://www.bohemiancoding.com/sketch -->
    <title>social-twitter</title>
    <desc>Created with Sketch.</desc>
    <defs></defs>
    <g id="AssetMaker" stroke="none" stroke-width="1" fill="none" fill-rule="evenodd">
        <g id="-Asset-Maker" transform="translate(-102.000000, -609.000000)">
            <g id="social-twitter" transform="translate(102.000000, 609.000000)">
                <rect id="Rectangle-31" fill="#59ADEB" x="0" y="0" width="36" height="36" rx="18"></rect>
                <path d="M29,11.8939622 C28.2641748,12.2152773 27.4733495,12.432466 26.6433495,12.5299978 C27.4903883,12.0301054 28.1411165,11.2385731 28.4474272,10.2953193 C27.6545631,10.7582252 26.7764563,11.094354 25.8417961,11.2754641 C25.0933495,10.4904308 24.0269417,10 22.8467476,10 C20.1982039,10 18.2512136,12.4330872 18.8498058,14.9595967 C15.4396117,14.7911978 12.4161165,13.1830454 10.3923786,10.7393974 C9.31752427,12.5544644 9.83485437,14.9298258 11.6621845,16.1320813 C10.9896602,16.1111509 10.3567961,15.9294196 9.80368932,15.626789 C9.75917476,17.4981961 11.1214563,19.2480826 13.0947087,19.6384011 C12.517233,19.7930853 11.8847087,19.828495 11.2417961,19.7075478 C11.763835,21.3122118 13.2792718,22.4800134 15.0748058,22.5125559 C13.3497087,23.8433565 11.1769903,24.4377703 9,24.1852197 C10.8158252,25.3312307 12.9726699,26 15.2898544,26 C22.9079126,26 27.2119417,19.6658782 26.9525243,13.9848517 C27.7543204,13.4153824 28.4499029,12.7039878 29,11.8939622 L29,11.8939622 Z" id="twitter-icon" fill="#FFFFFF"></path>
            </g>
        </g>
    </g>
</svg>