<?xml version="1.0" encoding="UTF-8"?>
<svg width="36px" height="36px" viewBox="0 0 36 36" version="1.1" xmlns="http://www.w3.org/2000/svg" xmlns:xlink="http://www.w3.org/1999/xlink">
    <!-- Generator: Sketch 43.1 (39012) - http://www.bohemiancoding.com/sketch -->
    <title>social-google</title>
    <desc>Created with Sketch.</desc>
    <defs></defs>
    <g id="AssetMaker" stroke="none" stroke-width="1" fill="none" fill-rule="evenodd">
        <g id="-Asset-Maker" transform="translate(-146.000000, -609.000000)">
            <g id="social-google" transform="translate(146.000000, 609.000000)">
                <rect id="Rectangle-31" fill="#BD4C3A" x="0" y="0" width="36" height="36" rx="18"></rect>
                <path d="M11,23.0192308 C11,22.4999974 11.1454234,22.019233 11.4362745,21.5769231 C11.7271256,21.1346132 12.1143767,20.7660271 12.5980392,20.4711538 C13.4542526,19.9455102 14.7745009,19.6250006 16.5588235,19.5096154 C16.3496722,19.2403833 16.194445,19.0032062 16.0931373,18.7980769 C15.9918296,18.5929477 15.9411765,18.3589757 15.9411765,18.0961538 C15.9411765,17.8653835 16.0098032,17.5929503 16.1470588,17.2788462 C15.8464037,17.3044873 15.6241837,17.3173077 15.4803922,17.3173077 C14.5130671,17.3173077 13.6977157,17.0080159 13.0343137,16.3894231 C12.3709117,15.7708302 12.0392157,14.9871842 12.0392157,14.0384615 C12.0392157,13.5128179 12.1568616,13.0032076 12.3921569,12.5096154 C12.6274522,12.0160232 12.9509783,11.5961556 13.3627451,11.25 C13.8660156,10.826921 14.4624149,10.5128215 15.1519608,10.3076923 C15.8415067,10.1025631 16.5522839,10 17.2843137,10 L21.3823529,10 L20.0294118,10.8461538 L18.745098,10.8461538 C19.2287606,11.250002 19.59477,11.6762798 19.8431373,12.125 C20.0915045,12.5737202 20.2156863,13.0865356 20.2156863,13.6634615 C20.2156863,14.1250023 20.1356217,14.5400623 19.9754902,14.9086538 C19.8153587,15.2772454 19.6225501,15.5753194 19.3970588,15.8028846 C19.1715675,16.0304499 18.9444456,16.2387811 18.7156863,16.4278846 C18.486927,16.6169881 18.2924845,16.8141015 18.1323529,17.0192308 C17.9722214,17.22436 17.8921569,17.4358963 17.8921569,17.6538462 C17.8921569,17.8846165 17.996731,18.1105758 18.2058824,18.3317308 C18.4150337,18.5528857 18.6682992,18.7708323 18.9656863,18.9855769 C19.2630734,19.2003216 19.5588221,19.4358962 19.8529412,19.6923077 C20.1470603,19.9487192 20.3986918,20.2820492 20.6078431,20.6923077 C20.8169945,21.1025662 20.9215686,21.5576898 20.9215686,22.0576923 C20.9215686,22.6346183 20.7647075,23.1890999 20.4509804,23.7211538 C19.9803898,24.503209 19.2908542,25.0785238 18.3823529,25.4471154 C17.4738517,25.815707 16.5000052,26 15.4607843,26 C14.5980349,26 13.7924874,25.8669885 13.0441176,25.6009615 C12.2957479,25.3349346 11.735296,24.8942338 11.3627451,24.2788462 C11.1209138,23.8942288 11,23.4743613 11,23.0192308 Z M12.8235294,22.5769231 C12.8235294,23.0256433 12.9379074,23.4214726 13.1666667,23.7644231 C13.395426,24.1073735 13.6944426,24.3733965 14.0637255,24.5625 C14.4330084,24.7516035 14.8218934,24.8926277 15.2303922,24.9855769 C15.6388909,25.0785261 16.0555534,25.125 16.4803922,25.125 C16.859479,25.125 17.2238545,25.0833337 17.5735294,25 C17.9232044,24.9166663 18.2467305,24.7916675 18.5441176,24.625 C18.8415048,24.4583325 19.0800645,24.2243605 19.2598039,23.9230769 C19.4395434,23.6217934 19.5294118,23.2724379 19.5294118,22.875 C19.5294118,22.7147428 19.5065362,22.5576931 19.4607843,22.4038462 C19.4150325,22.2499992 19.3676473,22.1153852 19.3186275,22 C19.2696076,21.8846148 19.1813732,21.7516033 19.0539216,21.6009615 C18.92647,21.4503198 18.8300657,21.3381414 18.7647059,21.2644231 C18.6993461,21.1907048 18.5735303,21.0801289 18.3872549,20.9326923 C18.2009795,20.7852557 18.0816996,20.6923079 18.0294118,20.6538462 C17.9771239,20.6153844 17.8415044,20.5192315 17.622549,20.3653846 C17.4035937,20.2115377 17.2843138,20.1282052 17.2647059,20.1153846 C17.1601302,20.102564 17.003269,20.0961538 16.7941176,20.0961538 C16.4477107,20.0961538 16.1045769,20.1185895 15.7647059,20.1634615 C15.4248349,20.2083336 15.0735312,20.288461 14.7107843,20.4038462 C14.3480374,20.5192313 14.0310471,20.6666658 13.7598039,20.8461538 C13.4885607,21.0256419 13.2647068,21.2644216 13.0882353,21.5625 C12.9117638,21.8605784 12.8235294,22.1987161 12.8235294,22.5769231 Z M13.8627451,13.0192308 C13.8627451,13.314104 13.8954245,13.6266009 13.9607843,13.9567308 C14.0261441,14.2868606 14.1290843,14.6169855 14.2696078,14.9471154 C14.4101314,15.2772452 14.5800644,15.5737166 14.7794118,15.8365385 C14.9787592,16.0993603 15.2238548,16.3141017 15.5147059,16.4807692 C15.805557,16.6474367 16.1209133,16.7307692 16.4607843,16.7307692 C16.7091516,16.7307692 16.964051,16.6778851 17.2254902,16.5721154 C17.4869294,16.4663456 17.7026135,16.3269239 17.872549,16.1538462 C18.218956,15.7884597 18.3921569,15.2788494 18.3921569,14.625 C18.3921569,14.2532033 18.3366019,13.8525663 18.2254902,13.4230769 C18.1143785,12.9935876 17.9558834,12.5785276 17.75,12.1778846 C17.5441166,11.7772416 17.2679756,11.4455141 16.9215686,11.1826923 C16.5751617,10.9198705 16.1928125,10.7884615 15.7745098,10.7884615 C15.4999986,10.7884615 15.2303935,10.8509609 14.9656863,10.9759615 C14.7009791,11.1009622 14.4869289,11.2692297 14.3235294,11.4807692 C14.0163383,11.8589763 13.8627451,12.3717916 13.8627451,13.0192308 Z M21.3137255,17.7403846 L21.3137255,16.7019231 L23.3921569,16.7019231 L23.3921569,14.6153846 L24.4215686,14.6153846 L24.4215686,16.7019231 L26.5098039,16.7019231 L26.5098039,17.7403846 L24.4215686,17.7403846 L24.4215686,19.8461538 L23.3921569,19.8461538 L23.3921569,17.7403846 L21.3137255,17.7403846 Z" id="icon" fill="#FFFFFF"></path>
            </g>
        </g>
    </g>
</svg>